<svg width="160" height="160" viewBox="0 0 160 160" fill="none" xmlns="http://www.w3.org/2000/svg">
<path d="M143.322 142.957L141.498 144.977L49.7715 93.7216C49.2504 93.4691 48.208 93.4691 47.5566 93.8479L46.3839 94.4791L42.7357 93.4691C42.7357 93.4691 40.7813 95.1103 42.4751 97.8877C42.4751 98.0139 42.6054 98.0139 42.7357 98.1402C42.7357 98.1402 42.7357 98.1402 42.866 98.1402C42.9963 98.5189 42.9963 98.5189 43.1266 98.6451L135.244 150.153C136.416 150.784 138.371 150.658 139.673 150.027L143.713 147.754L147.752 145.482L143.322 142.957Z" fill="#3D1F04"/>
<path d="M137.198 151.163C136.416 151.163 135.635 151.037 134.983 150.658L42.8662 99.0239C42.7359 98.8976 42.6056 98.8976 42.4753 98.7714H42.345C42.2147 98.6451 42.0844 98.5189 42.0844 98.3926V98.2664L42.6056 98.0139L42.0844 98.2664C40.5209 95.7415 41.6935 93.8478 42.4753 93.0904L42.7359 92.9641L46.3841 93.9741L47.2961 93.4691C48.0779 92.9641 49.3808 92.9641 50.0323 93.3428L141.237 144.346L143.061 142.326L148.924 145.482L139.934 150.532C139.152 150.91 138.24 151.163 137.198 151.163ZM42.9964 97.7614C43.1267 97.8877 43.1267 97.8876 43.1267 98.0139C43.257 98.1401 43.257 98.1401 43.3873 98.1401L135.504 149.648C136.416 150.153 138.24 150.153 139.413 149.522L146.709 145.482L143.452 143.714L141.628 145.734L141.237 145.482L49.5111 94.2266C49.1202 93.9741 48.3384 94.1003 47.8173 94.3528L46.5144 95.1103L42.9964 94.1003C42.6056 94.6053 41.8238 95.8677 42.9964 97.7614Z" fill="#3D1F04"/>
<path d="M135.244 146.997L43.1266 95.489C41.9539 94.8578 42.0842 93.7216 43.3872 92.9641L47.4262 90.6917C48.0777 90.313 49.12 90.313 49.6412 90.5655L143.843 143.209C144.364 143.588 144.364 144.093 143.713 144.472L139.673 146.744C138.371 147.628 136.416 147.628 135.244 146.997Z" fill="#F6ECD0"/>
<path d="M137.198 148.007C136.416 148.007 135.634 147.88 134.983 147.502L42.8661 95.9938C42.2146 95.6151 41.8237 95.1101 41.8237 94.4789C41.8237 93.7214 42.3449 93.0902 43.257 92.5852L47.296 90.3128C48.0778 89.8079 49.3807 89.8079 50.0322 90.1866L144.234 142.831C144.625 143.083 144.885 143.462 144.885 143.841C144.885 144.346 144.625 144.724 144.104 144.977L140.064 147.249C139.152 147.754 138.24 148.007 137.198 148.007ZM135.504 146.618C136.416 147.123 138.24 147.123 139.413 146.492L143.452 144.219C143.713 144.093 143.713 143.967 143.713 143.967C143.713 143.967 143.713 143.967 143.582 143.841L49.511 91.0703C49.1201 90.8178 48.3384 90.9441 47.8172 91.1965L43.7781 93.469C43.257 93.7214 42.9964 94.1002 42.9964 94.3527C42.9964 94.6051 43.257 94.8576 43.5175 94.9839L135.504 146.618Z" fill="#3D1F04"/>
<path d="M137.85 147.502H136.938V150.658H137.85V147.502Z" fill="#EA9F4F"/>
<path d="M159.478 141.316C159.478 141.19 159.478 141.19 159.478 141.063V71.5025C159.478 67.8414 157.133 63.5491 154.266 61.9079L45.9932 1.31051C45.8629 1.31051 45.6024 1.18427 45.3418 1.05803C44.1691 0.426803 41.5633 0.174314 39.218 1.563C36.8727 2.95169 35.9607 5.72907 35.9607 5.72907L40.9118 6.48654V74.6586C40.9118 78.3197 43.2571 82.612 46.1235 84.2532L153.224 144.219L151.139 145.103L150.227 148.259C150.227 148.259 153.745 149.143 156.351 147.754C159.608 145.861 159.478 141.316 159.478 141.316Z" fill="#F6ECD0"/>
<path d="M152.703 149.143C151.27 149.143 150.097 148.89 150.097 148.89L149.576 148.764L150.618 144.851L151.921 144.219L45.7327 84.8844C42.7359 83.2432 40.2604 78.6984 40.2604 74.9111V6.9915L35.179 6.23403L35.3092 5.60281C35.3092 5.47656 36.3516 2.57294 38.8271 1.058C41.433 -0.456935 44.2994 -0.0782013 45.4721 0.553022C45.7327 0.679266 45.9932 0.805511 46.2538 0.931755L154.527 61.5292C157.524 63.1703 159.999 67.7151 159.999 71.5025V141.063V141.189V141.316C159.999 141.568 160.13 146.239 156.612 148.259C155.309 148.89 153.876 149.143 152.703 149.143ZM150.879 147.88C151.921 148.007 154.266 148.259 156.091 147.249C158.306 145.987 158.827 143.462 158.957 142.199V141.063V71.5025C158.957 67.9676 156.742 63.9278 154.006 62.4129L45.7327 1.81547C45.4721 1.68922 45.3418 1.56298 45.0812 1.56298L44.8206 1.43673C43.7783 1.058 41.5633 0.931755 39.4786 2.06796C37.9151 2.95167 37.1333 4.4666 36.7425 5.35032L41.433 5.98154V74.6586C41.433 78.1934 43.648 82.2333 46.3841 83.7482L154.397 144.219L151.53 145.482L150.879 147.88Z" fill="#3D1F04"/>
<path d="M46.1235 1.43676C45.8629 1.31051 45.6024 1.18427 45.3418 1.05803C44.1691 0.426803 41.5633 0.174314 39.218 1.563C36.8727 2.95169 35.9607 5.72907 35.9607 5.72907L38.5665 6.10781C39.8695 5.2241 41.9542 4.97161 41.9542 4.97161C41.9542 4.97161 44.2994 2.69921 47.9476 2.32047L46.1235 1.43676Z" fill="#3D1F04"/>
<path d="M150.227 148.259C150.227 148.259 153.745 149.143 156.351 147.754C159.609 145.861 159.478 141.316 159.478 141.316C159.478 141.19 159.478 141.063 159.478 141.063V71.5025C159.478 69.2301 158.566 66.579 157.133 64.6853C157.133 64.6853 155.569 66.9577 151.791 67.7152C148.794 68.3464 142.801 121.874 140.716 137.276L153.094 144.219L151.009 145.103L150.227 148.259Z" fill="#3D1F04"/>
<path d="M148.925 147.754L40.6514 87.1567C37.785 85.5156 35.4397 81.2233 35.4397 77.5622V8.12764C35.4397 4.46654 37.785 2.69912 40.6514 4.3403L148.925 64.9377C151.791 66.5789 154.136 70.8712 154.136 74.5323V143.967C154.136 147.754 151.791 149.395 148.925 147.754Z" fill="#EA9F4F"/>
<path d="M151.009 148.89C150.228 148.89 149.446 148.638 148.664 148.259L40.3908 87.788C37.394 86.1468 34.9185 81.602 34.9185 77.8147V8.12767C34.9185 5.98152 35.7002 4.34034 37.0031 3.58287C38.1758 2.95165 39.4787 3.07789 40.9119 3.83536L149.185 64.4327C152.182 66.0739 154.657 70.6187 154.657 74.4061V143.967C154.657 146.113 153.876 147.754 152.573 148.512C152.182 148.764 151.53 148.89 151.009 148.89ZM149.185 147.375C150.228 148.007 151.27 148.007 152.052 147.628C152.964 147.123 153.615 145.734 153.615 144.093V74.4061C153.615 70.8712 151.4 66.8314 148.664 65.3165L40.3908 4.84531C39.3484 4.21409 38.3061 4.21409 37.5243 4.59283C36.6123 5.0978 36.0911 6.36025 36.0911 8.12767V77.6884C36.0911 81.2233 38.3061 85.2631 41.0422 86.778L149.185 147.375Z" fill="#3D1F04"/>
<path d="M147.361 141.947L42.2148 83.2433C41.0422 82.612 40.1301 80.8446 40.1301 79.4559V11.6626C40.1301 10.1476 41.0422 9.51643 42.2148 10.1476L147.361 68.9776C148.534 69.6088 149.446 71.3763 149.446 72.765V140.432C149.446 141.947 148.534 142.578 147.361 141.947Z" fill="#EA9F4F"/>
<path d="M148.273 142.831C147.882 142.831 147.491 142.704 147.231 142.578L41.9542 83.622C40.6512 82.8645 39.6089 80.9708 39.6089 79.3297V11.6626C39.6089 10.6526 39.9998 9.89516 40.6512 9.51642C41.1724 9.26393 41.8239 9.26393 42.6056 9.64267L147.752 68.4726C149.055 69.2301 150.097 71.1238 150.097 72.7649V140.432C150.097 141.442 149.706 142.199 149.055 142.578C148.794 142.704 148.534 142.831 148.273 142.831ZM147.622 141.568C147.752 141.694 148.143 141.821 148.403 141.694C148.664 141.568 148.794 141.063 148.794 140.558V72.7649C148.794 71.5025 148.012 69.9876 146.97 69.3563L41.9542 10.6526C41.8239 10.5264 41.433 10.4001 41.1724 10.5264C40.9118 10.6526 40.7815 11.1576 40.7815 11.6626V79.3297C40.7815 80.5921 41.5633 82.107 42.6056 82.7383L147.622 141.568Z" fill="#3D1F04"/>
<path d="M45.0812 81.7283C43.9086 81.0971 42.9966 79.3297 42.9966 77.941V10.6526L42.2148 10.1476C41.0422 9.51643 40.1301 10.1476 40.1301 11.6626V79.3297C40.1301 80.8446 41.0422 82.4858 42.2148 83.117L147.361 141.947C148.534 142.578 149.446 141.947 149.446 140.432V140.053L45.0812 81.7283Z" fill="#3D1F04"/>
<path d="M148.273 142.831C147.882 142.831 147.491 142.704 147.231 142.578L41.9542 83.622C40.6512 82.8645 39.6089 80.9708 39.6089 79.3297V11.6626C39.6089 10.6526 39.9998 9.89516 40.6512 9.51642C41.1724 9.26393 41.8239 9.26393 42.6056 9.64267L43.648 10.2739V77.8147C43.648 79.0772 44.4297 80.5921 45.4721 81.2233L150.097 139.801V140.558C150.097 141.568 149.706 142.326 149.055 142.704C148.794 142.704 148.534 142.831 148.273 142.831ZM41.433 10.5264C41.3027 10.5264 41.3027 10.5264 41.1724 10.5264C40.9118 10.6526 40.7815 11.1576 40.7815 11.6626V79.3297C40.7815 80.5921 41.5633 82.107 42.6056 82.7383L147.752 141.568C147.882 141.694 148.273 141.821 148.534 141.694C148.794 141.568 148.924 141.063 148.924 140.558V140.432L44.8206 82.107C43.5177 81.3496 42.4753 79.4559 42.4753 77.8147V10.9051L41.9542 10.6526C41.8239 10.5264 41.6936 10.5264 41.433 10.5264Z" fill="#3D1F04"/>
<path d="M154.918 72.7648L154.657 72.0074C154.657 72.0074 156.742 71.3761 158.566 69.8612L159.087 70.4924C157.003 72.1336 154.918 72.7648 154.918 72.7648Z" fill="#EA9F4F"/>
<path d="M43.0803 79.3773L40.9802 80.6476L41.4633 81.3972L43.5633 80.127L43.0803 79.3773Z" fill="#EA9F4F"/>
<path d="M114.006 131.721L118.045 133.994C118.697 134.372 119.478 134.246 120 133.867L121.433 132.857C121.954 132.479 121.824 131.721 121.302 131.342L117.394 128.944C116.742 128.565 115.96 128.565 115.439 129.07L113.876 130.206C113.485 130.585 113.485 131.342 114.006 131.721Z" fill="#EA9F4F"/>
<path d="M118.957 134.751C118.566 134.751 118.176 134.625 117.785 134.499L113.746 132.226C113.355 131.974 113.094 131.595 112.964 131.09C112.964 130.585 113.094 130.206 113.485 129.828L115.049 128.691C115.83 128.06 116.873 128.06 117.654 128.565L121.563 130.964C121.954 131.216 122.215 131.595 122.215 132.1C122.215 132.605 122.084 132.984 121.693 133.362L120.26 134.372C120 134.625 119.479 134.751 118.957 134.751ZM116.612 129.196C116.351 129.196 116.091 129.323 115.83 129.449L114.267 130.585C114.267 130.585 114.137 130.711 114.137 130.837C114.137 130.964 114.267 131.09 114.267 131.09L118.306 133.362C118.697 133.615 119.218 133.615 119.609 133.236L121.042 132.226C121.042 132.226 121.172 132.1 121.172 131.974C121.172 131.847 121.042 131.721 121.042 131.721L117.133 129.323C117.003 129.323 116.742 129.196 116.612 129.196Z" fill="#3D1F04"/>
<path d="M114.006 130.585L118.045 132.857C118.697 133.236 119.478 133.11 120 132.731L121.433 131.721C121.954 131.343 121.824 130.585 121.302 130.206L117.394 127.808C116.742 127.429 115.96 127.429 115.439 127.934L113.876 129.07C113.485 129.575 113.485 130.333 114.006 130.585Z" fill="#EA9F4F"/>
<path d="M118.957 133.741C118.566 133.741 118.176 133.615 117.785 133.489L113.746 131.216C113.355 130.964 113.094 130.585 112.964 130.08C112.964 129.575 113.094 129.196 113.485 128.818L115.049 127.681C115.83 127.05 116.873 127.05 117.654 127.555L121.563 129.954C121.954 130.206 122.215 130.585 122.215 131.09C122.215 131.595 122.084 131.974 121.693 132.352L120.26 133.362C120 133.489 119.479 133.741 118.957 133.741ZM116.612 128.186C116.351 128.186 116.091 128.313 115.83 128.439L114.267 129.575C114.267 129.575 114.137 129.701 114.137 129.827C114.137 129.954 114.267 130.08 114.267 130.08L118.306 132.352C118.697 132.605 119.218 132.605 119.609 132.226L121.172 131.342C121.172 131.342 121.303 131.216 121.303 131.09C121.303 130.964 121.172 130.837 121.172 130.837L117.264 128.439C117.003 128.313 116.742 128.186 116.612 128.186Z" fill="#3D1F04"/>
<path d="M51.5959 97.2563L66.5795 105.588C67.231 105.967 68.0127 105.841 68.5339 105.462L69.9671 104.452C70.4883 104.074 70.358 103.316 69.8368 102.937L54.9835 94.479C54.332 94.1002 53.5503 94.1002 53.0291 94.6052L51.4656 95.7414C50.9444 96.1201 51.0747 96.8776 51.5959 97.2563Z" fill="#EA9F4F"/>
<path d="M67.4915 106.346C67.1006 106.346 66.7098 106.22 66.3189 106.093L51.3352 97.7613C50.9443 97.5088 50.6838 97.1301 50.5535 96.6251C50.5535 96.1201 50.6838 95.7414 51.0746 95.3627L52.6382 94.2265C53.4199 93.5953 54.4623 93.5953 55.244 94.1002L70.0974 102.559C70.4883 102.811 70.7488 103.19 70.8791 103.695C70.8791 104.2 70.7488 104.579 70.358 104.957L68.9247 105.967C68.5339 106.22 68.0127 106.346 67.4915 106.346ZM51.8564 96.7514L66.8401 105.084C67.2309 105.336 67.7521 105.336 68.143 104.957L69.5762 103.947C69.5762 103.947 69.7065 103.821 69.7065 103.695C69.7065 103.569 69.5762 103.442 69.5762 103.442L54.7228 94.9839C54.332 94.7315 53.8108 94.7315 53.4199 95.1102L51.8564 96.2464C51.8564 96.2464 51.7261 96.3726 51.7261 96.4989C51.7261 96.6251 51.8564 96.7514 51.8564 96.7514Z" fill="#3D1F04"/>
<path d="M51.5959 96.2463L66.5795 104.578C67.231 104.957 68.0127 104.831 68.5339 104.452L69.9671 103.442C70.4883 103.064 70.358 102.306 69.8368 101.927L54.9835 93.4689C54.332 93.0902 53.5503 93.0902 53.0291 93.5952L51.4656 94.7314C50.9444 95.1101 51.0747 95.8676 51.5959 96.2463Z" fill="#EA9F4F"/>
<path d="M67.4915 105.336C67.1006 105.336 66.7098 105.21 66.3189 105.084L51.3352 96.7514C50.9443 96.4989 50.6838 96.1202 50.5535 95.6152C50.5535 95.1103 50.6838 94.7315 51.0746 94.3528L52.6382 93.2166C53.4199 92.5854 54.4623 92.5854 55.244 93.0903L70.0974 101.549C70.4883 101.801 70.7488 102.18 70.8791 102.685C70.8791 103.19 70.7488 103.569 70.358 103.947L68.9247 104.831C68.5339 105.21 68.0127 105.336 67.4915 105.336ZM51.8564 95.7415L66.8401 104.074C67.2309 104.326 67.7521 104.326 68.143 103.947L69.5762 102.937C69.5762 102.937 69.7065 102.811 69.7065 102.685C69.7065 102.559 69.5762 102.432 69.5762 102.432L54.7228 93.9741C54.332 93.7216 53.6805 93.7216 53.2896 94.1003L51.7261 95.2365C51.7261 95.2365 51.5958 95.3627 51.5958 95.489C51.7261 95.6152 51.8564 95.6152 51.8564 95.7415Z" fill="#3D1F04"/>
<path d="M125.081 127.807C124.82 127.807 124.69 127.934 124.69 128.186L125.733 138.159C125.733 138.791 126.384 139.296 127.557 139.674C128.208 139.801 128.86 139.801 129.641 139.674C130.814 139.422 131.465 138.791 131.465 138.159L132.508 128.186C132.508 127.934 132.377 127.807 132.117 127.807H125.081Z" fill="#EA9F4F"/>
<path d="M128.599 140.306C128.208 140.306 127.817 140.306 127.426 140.179C125.732 139.801 125.211 138.917 125.211 138.159L124.169 128.312C124.169 128.06 124.169 127.807 124.43 127.681C124.56 127.555 124.82 127.429 125.081 127.429H132.117C132.377 127.429 132.638 127.555 132.768 127.681C132.899 127.807 133.029 128.06 133.029 128.312L131.987 138.286C131.987 139.169 131.205 139.927 129.772 140.179C129.381 140.306 128.99 140.306 128.599 140.306ZM125.342 128.312L126.384 138.033C126.384 138.412 126.775 138.791 127.817 139.043C128.338 139.169 128.99 139.169 129.641 139.043C130.553 138.791 131.074 138.412 131.074 138.033L132.117 128.186H125.342V128.312Z" fill="#3D1F04"/>
<path d="M131.335 126.293C132.899 127.176 132.899 128.565 131.335 129.322C129.772 130.206 127.426 130.206 125.863 129.322C124.299 128.439 124.299 127.05 125.863 126.293C127.296 125.409 129.772 125.409 131.335 126.293Z" fill="#EA9F4F"/>
<path d="M128.599 130.585C127.557 130.585 126.384 130.332 125.602 129.827C124.69 129.322 124.169 128.565 124.169 127.808C124.169 127.05 124.69 126.293 125.602 125.788C127.296 124.778 129.902 124.778 131.596 125.788C132.508 126.293 133.029 127.05 133.029 127.808C133.029 128.565 132.508 129.322 131.596 129.827C130.684 130.332 129.641 130.585 128.599 130.585ZM128.599 126.166C127.687 126.166 126.775 126.293 126.123 126.671C125.602 126.924 125.211 127.303 125.211 127.681C125.211 128.06 125.472 128.439 126.123 128.691C127.426 129.449 129.772 129.449 131.074 128.691C131.596 128.439 131.987 128.06 131.987 127.681C131.987 127.303 131.726 126.924 131.074 126.671C130.293 126.419 129.511 126.166 128.599 126.166Z" fill="#3D1F04"/>
<path d="M133.729 105.849C139.96 102.363 139.966 91.0689 133.742 80.6231C127.517 70.1774 117.42 64.5355 111.188 68.0216C104.956 71.5078 104.95 82.8018 111.175 93.2476C117.399 103.693 127.497 109.335 133.729 105.849Z" fill="#EA9F4F"/>
<path d="M129.641 107.356C125.211 107.356 120 104.578 115.57 99.9074C107.361 91.1966 103.843 78.4459 107.492 71.2499C108.925 68.5988 111.14 66.9576 114.006 66.5789C118.697 65.9476 124.43 68.725 129.381 74.0273C137.589 82.7382 141.107 95.4889 137.459 102.685C136.026 105.336 133.811 106.977 130.944 107.356C130.553 107.356 130.163 107.356 129.641 107.356ZM115.44 67.5888C115.049 67.5888 114.658 67.5888 114.267 67.7151C111.791 68.0938 109.837 69.4825 108.534 71.8811C105.016 78.6983 108.534 90.9441 116.482 99.2762C121.172 104.326 126.645 106.977 130.944 106.346C133.42 105.967 135.374 104.578 136.677 102.18C140.195 95.3626 136.677 83.1169 128.729 74.7848C124.43 70.1137 119.479 67.5888 115.44 67.5888Z" fill="#F6ECD0"/>
<path d="M108.013 71.5024L122.475 86.9043L128.99 74.2798C121.042 65.8214 111.661 64.559 108.013 71.5024Z" fill="#EA9F4F"/>
<path d="M122.345 87.5355L122.084 87.283L107.361 71.6286L107.492 71.2499C108.925 68.5988 111.14 66.9576 114.006 66.5789C118.697 65.9476 124.43 68.725 129.381 74.0273L129.641 74.2798L129.511 74.6585L122.866 87.5355H122.345ZM108.664 71.3762L122.345 85.8943L128.338 74.2798C123.648 69.4825 118.436 66.9576 114.137 67.4626C111.791 67.9676 109.967 69.23 108.664 71.3762Z" fill="#F6ECD0"/>
<path d="M136.156 85.3893C136.156 85.3893 136.156 85.263 136.156 85.3893C134.593 81.4757 132.378 77.9408 129.251 74.6585L129.12 74.5322L122.606 87.0304L136.156 85.3893Z" fill="#EA9F4F"/>
<path d="M122.345 87.5354L121.954 87.0304L122.084 86.7779L128.99 73.396L129.772 74.1535C132.638 77.3096 134.983 80.9707 136.807 85.0105L136.938 85.263L136.677 85.768H136.417L122.345 87.5354ZM129.25 75.2897L123.518 86.2729L135.374 84.8843C133.811 81.3494 131.726 78.067 129.25 75.2897Z" fill="#F6ECD0"/>
<path d="M137.98 91.449C137.589 89.4291 136.938 87.4092 136.156 85.3893L122.606 87.0305L137.98 91.449Z" fill="#EA9F4F"/>
<path d="M138.11 91.954L137.85 91.8278L122.084 87.283V86.3993L122.475 86.273L136.417 84.6318L136.547 85.0106C137.459 87.0305 137.98 89.1766 138.371 91.1966V91.449L138.11 91.954ZM125.211 87.1567L137.198 90.6916C136.808 89.0504 136.286 87.5355 135.765 85.8943L125.211 87.1567Z" fill="#F6ECD0"/>
<path d="M96.9379 54.9644L63.7133 36.2802C62.4103 35.5228 61.4983 36.154 61.4983 37.5427V50.0409C61.4983 51.4296 62.5406 53.197 63.7133 53.8282L97.0682 72.5124C98.3711 73.2699 99.2832 72.6387 99.2832 71.25V58.7518C99.2832 57.3631 98.2408 55.7219 96.9379 54.9644Z" fill="#EA9F4F"/>
<path d="M97.9803 73.3961C97.5895 73.3961 97.1986 73.2699 96.6774 73.0174L63.3225 54.3332C61.8893 53.5757 60.8469 51.682 60.8469 50.0408V37.5426C60.8469 36.6589 61.2378 36.0277 61.759 35.649C62.4104 35.2702 63.1922 35.3965 63.9739 35.7752L97.3289 54.4594C98.7621 55.2169 99.8044 57.1105 99.8044 58.7517V71.2499C99.8044 72.1337 99.4136 72.7649 98.8924 73.1436C98.6318 73.2699 98.2409 73.3961 97.9803 73.3961ZM62.671 36.5327C62.5407 36.5327 62.4104 36.5327 62.4104 36.6589C62.1499 36.7852 62.0196 37.1639 62.0196 37.6689V50.1671C62.0196 51.4295 62.9316 52.9445 63.9739 53.4495L97.1986 72.0074C97.5895 72.2599 97.9803 72.2599 98.2409 72.1337C98.5015 72.0074 98.6318 71.6287 98.6318 71.1237V58.6255C98.6318 57.363 97.7197 55.8481 96.6774 55.3431L63.3225 36.7852C63.0619 36.6589 62.8013 36.5327 62.671 36.5327Z" fill="#F6ECD0"/>
<path d="M54.7231 31.104L53.6808 30.5991C52.3779 29.8416 51.4658 30.4728 51.4658 31.8615V62.4127C51.4658 63.8014 52.5082 65.5688 53.6808 66.2L54.7231 66.705C56.0261 67.4625 56.9381 66.8313 56.9381 65.4426V34.8914C57.0684 33.5027 56.0261 31.7353 54.7231 31.104Z" fill="#EA9F4F"/>
<path d="M55.7654 67.5888C55.3745 67.5888 54.9837 67.4626 54.4625 67.2101L53.4201 66.5789C51.9869 65.8214 50.9446 63.9277 50.9446 62.2866V31.7354C50.9446 30.8517 51.3355 30.2204 51.8566 29.8417C52.5081 29.463 53.2899 29.5892 54.0716 29.968L55.1139 30.4729C56.5472 31.2304 57.5895 33.1241 57.5895 34.7653V65.3164C57.5895 66.2002 57.1986 66.8314 56.6775 67.2101C56.4169 67.4626 56.026 67.5888 55.7654 67.5888ZM52.7687 30.7254C52.6384 30.7254 52.5081 30.7254 52.5081 30.8517C52.2475 30.9779 52.1172 31.3567 52.1172 31.8616V62.4128C52.1172 63.6753 53.0293 65.1902 54.0716 65.6952L55.1139 66.2002C55.5048 66.4526 55.8957 66.4526 56.1563 66.3264C56.4169 66.2002 56.5472 65.8214 56.5472 65.3164V34.8915C56.5472 33.6291 55.6351 32.1141 54.5928 31.6091L53.4201 30.9779C53.1596 30.8517 52.899 30.7254 52.7687 30.7254Z" fill="#F6ECD0"/>
<path d="M83.2573 68.4725L77.2638 65.1901C75.9609 64.4327 75.0488 65.0639 75.0488 66.4526V75.7947C75.0488 77.1834 76.0912 78.9508 77.2638 79.582L83.2573 82.8644C84.5602 83.6218 85.4723 82.9906 85.4723 81.6019V72.2598C85.6025 70.8711 84.5602 69.23 83.2573 68.4725Z" fill="#EA9F4F"/>
<path d="M84.2993 83.7481C83.9084 83.7481 83.5175 83.6218 82.9964 83.3693L77.0029 80.087C75.5697 79.3295 74.5273 77.4358 74.5273 75.7946V66.4525C74.5273 65.5688 74.9182 64.9376 75.4394 64.5589C76.0909 64.1801 76.8726 64.3064 77.6544 64.6851L83.6478 67.9675C85.0811 68.7249 86.1234 70.6186 86.1234 72.2598V81.6019C86.1234 82.4856 85.7325 83.1168 85.2113 83.4956C84.9508 83.7481 84.5599 83.7481 84.2993 83.7481ZM76.3514 65.4426C76.2211 65.4426 76.0909 65.4426 76.0909 65.5688C75.8303 65.6951 75.7 66.0738 75.7 66.5788V75.7946C75.7 77.0571 76.612 78.572 77.6544 79.077L83.6478 82.3594C84.0387 82.6119 84.4296 82.6119 84.6902 82.4856C84.9508 82.3594 85.0811 81.9806 85.0811 81.4757V72.1336C85.0811 70.8711 84.169 69.3562 83.1267 68.8512L77.1332 65.5688C76.7423 65.4426 76.612 65.4426 76.3514 65.4426Z" fill="#F6ECD0"/>
<path d="M96.9379 76.1734L90.9445 72.8911C89.6415 72.1336 88.7295 72.7648 88.7295 74.1535V83.4956C88.7295 84.8843 89.7718 86.6517 90.9445 87.2829L96.9379 90.5653C98.2409 91.3228 99.1529 90.6915 99.1529 89.3028V79.9608C99.2832 78.5721 98.2409 76.8046 96.9379 76.1734Z" fill="#EA9F4F"/>
<path d="M97.9802 91.4491C97.5893 91.4491 97.1984 91.3229 96.6773 91.0704L90.6838 87.788C89.2506 87.0305 88.2083 85.1369 88.2083 83.4957V74.1536C88.2083 73.2699 88.5991 72.6387 89.1203 72.2599C89.7718 71.8812 90.5535 72.0074 91.3353 72.3862L97.3287 75.6685C98.762 76.426 99.8043 78.3197 99.8043 79.9608V89.3029C99.8043 90.1867 99.4134 90.8179 98.8923 91.1966C98.6317 91.3229 98.2408 91.4491 97.9802 91.4491ZM90.0324 73.0174C89.9021 73.0174 89.7718 73.0174 89.7718 73.1436C89.5112 73.2699 89.3809 73.6486 89.3809 74.1536V83.4957C89.3809 84.7581 90.2929 86.2731 91.3353 86.7781L97.3287 90.0604C97.7196 90.3129 98.1105 90.3129 98.3711 90.1867C98.6317 90.0604 98.762 89.6817 98.762 89.1767V79.8346C98.762 78.5722 97.8499 77.0572 96.8076 76.5522L90.8141 73.2699C90.5535 73.1436 90.2929 73.0174 90.0324 73.0174Z" fill="#F6ECD0"/>
<path d="M51.8202 71.0012L51.2339 71.9851L139.018 121.094L139.605 120.11L51.8202 71.0012Z" fill="#F6ECD0"/>
<path d="M13.5506 110.512L20.847 118.718C20.847 118.718 10.0327 119.728 5.86332 124.525L0.651611 116.95C0.651611 117.077 2.86659 113.037 13.5506 110.512Z" fill="#EA9F4F"/>
<path d="M5.73288 125.535L0 117.077L0.130293 116.824C0.260585 116.698 2.60585 112.532 13.2899 110.007L13.6807 109.881L22.0195 119.223L20.8468 119.349C20.7165 119.349 10.1628 120.359 6.12376 125.03L5.73288 125.535ZM1.30293 117.077L5.86317 123.768C9.64166 120.107 16.9381 118.718 19.6742 118.339L13.2899 111.143C4.82083 113.163 1.95439 116.193 1.30293 117.077Z" fill="#3D1F04"/>
<path d="M20.0651 109.376L23.3224 119.854C23.3224 119.854 13.0293 116.446 7.16612 119.223L5.60261 110.26C5.47232 110.26 9.2508 107.356 20.0651 109.376Z" fill="#3D1F04"/>
<path d="M24.1042 120.612L23.0619 120.233C22.9316 120.233 12.899 116.951 7.29644 119.602L6.64498 119.98L4.95117 110.007L5.21176 109.755C5.34205 109.628 9.25083 106.725 20.1954 108.745H20.5863L24.1042 120.612ZM13.0293 117.456C16.8078 117.456 20.7166 118.339 22.4104 118.844L19.544 109.755C10.9446 108.24 7.03585 109.881 6.12381 110.512L7.42673 118.339C9.12054 117.708 11.0749 117.456 13.0293 117.456Z" fill="#3D1F04"/>
<path d="M25.0162 111.396L23.4527 122.127C23.4527 122.127 15.5049 114.804 8.99023 114.931L11.4658 106.22C11.4658 106.346 16.026 105.21 25.0162 111.396Z" fill="#F6ECD0"/>
<path d="M23.7133 123.263L22.9315 122.505C22.8012 122.379 15.1139 115.309 8.85988 115.436H8.07812L10.8143 105.715L11.0749 105.589C11.3354 105.589 16.026 104.579 25.0162 110.765L25.2768 111.017L23.7133 123.263ZM9.64164 114.426C14.9836 114.678 20.8468 119.223 22.9315 120.99L24.3647 111.522C17.1986 106.725 13.0292 106.598 11.8566 106.598L9.64164 114.426Z" fill="#3D1F04"/>
<path d="M54.8532 145.103L54.5926 144.093C54.4624 143.841 54.3321 143.462 54.2018 143.209L48.9901 138.412C48.8598 138.286 48.5992 138.033 48.4689 138.033L45.7327 136.518C45.4722 136.392 45.2116 136.392 45.0813 136.392L43.5178 137.023L42.2148 139.296L42.736 141.19L50.9445 148.259L54.4624 146.113C54.8532 145.861 55.1138 145.482 55.1138 144.977C54.8532 145.103 54.8532 145.103 54.8532 145.103Z" fill="#EA9F4F"/>
<path d="M50.6839 149.017L42.0846 141.568L41.4331 139.296L42.9966 136.645L44.8207 135.887C45.2116 135.761 45.6025 135.761 45.9934 136.013L48.7295 137.528C48.9901 137.655 49.2507 137.907 49.381 138.16L54.5927 142.831C54.8533 143.209 55.1138 143.588 55.2441 143.967L55.5047 144.977C55.5047 145.103 55.5047 145.103 55.5047 145.229C55.635 145.86 55.2441 146.492 54.5927 146.87L50.6839 149.017ZM43.1269 140.937L50.9445 147.628L54.0715 145.734C54.3321 145.608 54.4624 145.355 54.4624 145.229L54.9836 144.977L54.4624 145.103L54.2018 144.093C54.2018 143.841 54.0715 143.714 53.8109 143.462L48.5992 138.791C48.4689 138.538 48.3386 138.538 48.2083 138.412L45.4722 136.897C45.3419 136.771 45.3419 136.897 45.3419 136.897L43.9087 137.528L42.736 139.422L43.1269 140.937Z" fill="#3D1F04"/>
<path d="M48.8599 138.412C48.7296 138.286 48.469 138.033 48.3387 138.033L45.6026 136.518C45.342 136.392 45.0814 136.392 44.9511 136.392L43.3876 137.023L39.6091 139.296V139.422L42.6059 141.316L46.3844 144.219C47.2964 143.714 48.8599 146.113 48.9902 146.113C48.9902 146.113 49.3811 145.987 49.6417 145.861L53.9413 143.336C54.0716 143.209 54.0716 143.083 53.9413 142.957L48.8599 138.412Z" fill="#F6ECD0"/>
<path d="M48.9901 146.618C48.7295 146.618 48.4689 146.365 48.2083 145.987C47.2963 144.85 46.9054 144.598 46.6448 144.598L46.3842 144.85L45.9933 144.598L42.2148 141.694L38.9575 139.674V139.296C38.9575 139.043 39.0878 138.917 39.2181 138.791L43.1269 136.518L44.6904 135.887C45.0813 135.761 45.4722 135.761 45.863 136.013L48.5992 137.528C48.8598 137.655 48.9901 137.781 49.2506 138.033L54.3321 142.704C54.4624 142.831 54.4624 143.083 54.4624 143.336C54.4624 143.588 54.3321 143.714 54.0715 143.841L49.7718 146.365C49.6415 146.492 49.3809 146.492 48.9901 146.618C48.9901 146.618 49.1204 146.618 48.9901 146.618ZM46.6448 143.588C47.5568 143.588 48.4689 144.598 48.9901 145.229L49.1204 145.355C49.2506 145.355 49.3809 145.229 49.3809 145.229L53.2897 142.957L48.4689 138.665C48.3386 138.538 48.2083 138.412 48.078 138.412L45.3419 136.897C45.2116 136.771 45.2116 136.897 45.2116 136.897L43.6481 137.528L40.521 139.422L42.8663 140.811L46.6448 143.588C46.5145 143.588 46.5145 143.588 46.6448 143.588Z" fill="#3D1F04"/>
<path d="M39.218 140.053V141.19C39.218 141.821 39.6089 142.578 40.2604 142.831L50.1626 148.386C50.8141 148.764 51.3352 148.259 51.0747 147.376L50.8141 146.366C50.6838 146.113 50.5535 145.734 50.4232 145.482L45.2115 140.685C45.0812 140.558 44.8206 140.306 44.6903 140.306L41.9542 138.791C41.6936 138.665 41.433 138.665 41.3027 138.665L39.7392 139.296C39.3483 139.422 39.218 139.675 39.218 140.053Z" fill="#3D1F04"/>
<path d="M50.4232 149.017C50.1626 149.017 49.902 148.89 49.6414 148.764L39.7392 143.209C38.9575 142.831 38.4363 141.947 38.4363 141.063V139.927C38.4363 139.422 38.6969 138.917 39.0877 138.791L40.6513 138.16C41.0421 138.033 41.433 138.033 41.8239 138.286L44.56 139.801C44.8206 139.927 45.0812 140.18 45.2115 140.432L50.4232 145.103C50.6838 145.482 50.9444 145.861 51.0747 146.239L51.3353 147.249C51.4656 147.881 51.3353 148.512 50.9444 148.764C50.9444 149.017 50.6838 149.017 50.4232 149.017ZM39.7392 139.927C39.7392 139.927 39.7392 139.927 39.7392 140.053V141.19C39.7392 141.568 40.1301 142.2 40.3907 142.452L50.2929 148.007C50.4232 148.007 50.4232 148.007 50.4232 148.007C50.4232 148.007 50.4232 147.881 50.4232 147.628L50.1626 146.618C50.1626 146.366 50.0323 146.239 49.7717 145.987L44.56 141.316C44.4297 141.063 44.2995 141.063 44.1692 140.937L41.433 139.422C41.3027 139.296 41.3027 139.422 41.3027 139.422L39.7392 139.927Z" fill="#3D1F04"/>
<path d="M45.2116 139.927C47.166 140.053 48.8598 139.296 48.9901 138.286C48.9901 138.033 48.9901 137.907 48.8598 137.655C48.3386 136.518 46.9054 136.14 46.9054 136.14C46.9054 136.14 45.7328 135.761 44.039 136.14C42.736 136.392 42.2149 137.276 41.9543 137.781C41.9543 137.781 41.9543 137.781 41.9543 137.907C41.9543 138.033 41.824 138.033 41.824 138.16C41.6937 139.043 43.2572 139.801 45.2116 139.927Z" fill="#EA9F4F"/>
<path d="M45.4723 140.432C45.342 140.432 45.342 140.432 45.2117 140.432C43.6482 140.432 42.3452 139.927 41.6938 139.17C41.3029 138.791 41.1726 138.412 41.1726 137.907C41.1726 137.781 41.1726 137.781 41.1726 137.655L41.3029 137.402V137.276C41.5635 136.897 42.2149 135.761 43.7785 135.382C45.6026 135.003 46.9055 135.382 46.9055 135.382C46.9055 135.382 48.5993 135.887 49.2508 137.276C49.3811 137.528 49.5113 137.781 49.5113 138.16C49.3811 139.548 47.6872 140.432 45.4723 140.432ZM42.3452 137.907C42.3452 138.033 42.3452 138.033 42.3452 138.033C42.3452 138.16 42.3452 138.286 42.4755 138.412C42.9967 138.917 44.039 139.296 45.2117 139.296C47.0358 139.296 48.3387 138.665 48.3387 138.16C48.3387 138.033 48.3387 138.033 48.2084 137.907C47.6872 136.897 46.5146 136.518 46.5146 136.518C46.5146 136.518 45.4723 136.14 43.9088 136.518C43.127 136.771 42.6058 137.402 42.3452 137.907Z" fill="#3D1F04"/>
<path d="M45.3418 138.033C44.1692 138.033 43.1268 137.528 43.2571 136.897C43.2571 136.266 44.2995 135.887 45.6024 135.887C46.775 135.887 47.8174 136.392 47.6871 137.023C47.5568 137.528 46.5145 138.033 45.3418 138.033Z" fill="#EA9F4F"/>
<path d="M45.4722 138.539H45.3419C44.2995 138.539 43.5178 138.16 42.9966 137.655C42.736 137.403 42.6057 137.024 42.6057 136.772C42.736 135.888 43.9086 135.257 45.4722 135.257C46.5145 135.257 47.2963 135.635 47.8174 136.14C48.078 136.393 48.2083 136.772 48.2083 137.024C48.078 137.908 46.9054 138.539 45.4722 138.539ZM45.3419 137.403C46.5145 137.403 47.0357 137.024 47.0357 136.898C47.0357 136.898 47.0357 136.898 47.0357 136.772C46.7751 136.519 46.2539 136.267 45.4722 136.267C44.4298 136.267 43.7783 136.645 43.7783 136.772C43.7783 136.772 43.7783 136.772 43.7783 136.898C44.0389 137.15 44.5601 137.403 45.3419 137.403Z" fill="#3D1F04"/>
<path d="M47.5568 136.897L43.2572 136.771C43.5178 125.914 46.1236 116.067 46.7751 113.668L44.6904 103.695C43.7783 99.4026 41.824 95.3628 38.9575 92.0805L42.2148 89.4293C45.4722 93.3429 47.8174 98.0139 48.8598 102.937L51.0747 113.921L50.9444 114.426C50.9444 114.552 47.8174 125.409 47.5568 136.897Z" fill="#3D1F04"/>
<path d="M44.56 110.386C44.56 110.638 44.56 110.891 44.56 111.143C44.56 112.027 44.6903 112.911 44.9509 113.794C45.2114 114.804 45.7326 115.941 46.5144 116.572C47.9476 117.834 49.902 117.961 50.5534 117.961C50.814 117.961 50.9443 117.834 50.9443 117.708C51.3352 116.698 52.7684 113.163 51.9867 110.26C51.5958 108.618 50.5534 107.608 49.3808 107.104C47.2961 106.22 44.56 107.861 44.4297 110.007L44.56 110.386Z" fill="#EA9F4F"/>
<path d="M50.5534 118.592C49.6413 118.592 47.6869 118.465 46.1234 117.077C45.2114 116.319 44.5599 115.183 44.2993 113.921C44.0387 112.911 43.9084 112.027 43.9084 111.27C43.9084 111.017 43.9084 110.765 43.9084 110.512V110.133C44.0387 108.871 44.8205 107.735 45.9931 107.103C47.1658 106.472 48.599 106.346 49.6413 106.725C51.0745 107.356 52.1169 108.618 52.5078 110.26C53.2895 113.289 51.8563 116.951 51.4654 118.087C51.4654 118.339 51.0745 118.592 50.5534 118.592C50.6837 118.592 50.5534 118.592 50.5534 118.592ZM48.3384 107.356C47.8172 107.356 47.1658 107.482 46.6446 107.861C45.7325 108.366 45.2114 109.123 45.0811 110.007V110.386C45.0811 110.638 45.0811 110.891 45.0811 111.143C45.0811 111.901 45.2114 112.658 45.472 113.668C45.7325 114.678 46.2537 115.562 46.9052 116.193C48.2081 117.329 49.9019 117.456 50.5534 117.456C50.9443 116.572 52.2472 113.163 51.4654 110.386C51.0745 108.997 50.2928 107.987 49.2504 107.608C49.1202 107.482 48.7293 107.356 48.3384 107.356Z" fill="#3D1F04"/>
<path d="M51.9868 115.183C52.3777 113.668 52.6383 111.901 52.2474 110.386C52.1171 109.881 51.8565 109.376 51.596 108.871C51.596 108.871 50.0325 108.618 48.4689 109.123C47.6872 109.376 47.166 110.133 47.166 110.891C47.166 111.396 47.2963 112.153 47.4266 112.911C47.8175 114.552 49.381 115.688 51.0748 115.436C51.3354 115.309 51.7263 115.309 51.9868 115.183Z" fill="#F6ECD0"/>
<path d="M50.5535 115.941C48.7294 115.941 47.1659 114.678 46.775 112.911C46.6447 112.153 46.5144 111.522 46.5144 110.765C46.5144 109.628 47.1659 108.745 48.2082 108.366C49.7717 107.861 51.4655 108.113 51.5958 108.113H51.8564L51.9867 108.24C52.2473 108.745 52.5079 109.25 52.6382 109.881C53.029 111.27 52.8988 113.037 52.3776 114.931V115.183L52.117 115.309C51.8564 115.436 51.4655 115.562 51.0747 115.688C50.9444 115.941 50.8141 115.941 50.5535 115.941ZM50.4232 109.25C49.902 109.25 49.2506 109.25 48.5991 109.502C48.0779 109.628 47.687 110.133 47.687 110.765C47.687 111.396 47.8173 112.027 47.9476 112.658C48.2082 114.047 49.5111 114.931 50.9444 114.804C51.2049 114.804 51.3352 114.678 51.4655 114.678C51.8564 113.037 51.8564 111.522 51.5958 110.386C51.4655 110.007 51.3352 109.628 51.2049 109.25C51.0746 109.25 50.8141 109.25 50.4232 109.25Z" fill="#3D1F04"/>
<path d="M51.9867 72.5124L50.8141 63.2966C50.2929 59.383 48.3385 55.7219 45.3418 53.0708L48.2082 50.0409C51.9867 53.3233 54.332 57.8681 54.9835 62.7916L56.1561 72.0074L51.9867 72.5124Z" fill="#3D1F04"/>
<path d="M42.4755 91.5753C42.7361 90.4391 42.4755 89.4292 41.9543 88.798C41.0423 87.6618 39.609 86.9043 39.609 86.9043L37.7849 88.293L37.0032 93.469C37.0032 93.5953 37.1335 93.7215 37.2638 93.7215C39.2182 93.974 40.3908 93.5953 40.3908 93.5953H40.5211C41.4331 93.5953 42.2149 92.7115 42.4755 91.5753Z" fill="#3D1F04"/>
<path d="M38.5666 94.3528C38.1757 94.3528 37.6546 94.3528 37.1334 94.2265C36.8728 94.2265 36.7425 94.1003 36.6122 93.974C36.4819 93.8478 36.4819 93.5953 36.4819 93.3428L37.394 88.0405L39.4787 86.1469L39.8695 86.3993C39.8695 86.3993 41.4331 87.2831 42.3451 88.4193C43.1269 89.1767 43.3874 90.4392 42.9966 91.7016C42.6057 93.0903 41.6936 94.1003 40.521 94.2265H40.3907C40.521 94.2265 39.7393 94.3528 38.5666 94.3528ZM37.6546 93.2166C39.2181 93.3428 40.2604 93.0903 40.2604 93.0903H40.3907C41.0422 92.9641 41.6936 92.3328 41.9542 91.4491C42.2148 90.5654 42.0845 89.6817 41.5633 89.1767L41.4331 89.0505C40.9119 88.4193 39.9998 87.788 39.609 87.5355L38.4363 88.6717L37.6546 93.2166Z" fill="#3D1F04"/>
<path d="M40.6512 90.9441C40.1301 92.964 38.4363 94.2265 37.003 93.8478C35.5698 93.469 34.7881 91.5754 35.4395 89.5554C35.9607 87.5355 37.6545 86.2731 39.0877 86.6518C40.5209 87.0305 41.1724 88.9242 40.6512 90.9441Z" fill="#EA9F4F"/>
<path d="M37.5242 94.3527C37.2636 94.3527 37.003 94.3527 36.8727 94.2265C35.9607 93.974 35.3092 93.3427 34.9183 92.3328C34.5275 91.4491 34.5275 90.3129 34.7881 89.3029C35.0486 88.293 35.7001 87.283 36.4819 86.778C37.2636 86.1468 38.306 85.8943 39.0877 86.1468C40.7815 86.6518 41.6936 88.7979 41.0421 91.0703C40.7815 92.0803 40.1301 93.0903 39.3483 93.5952C38.8271 94.1002 38.1757 94.3527 37.5242 94.3527ZM38.4363 87.0305C38.0454 87.0305 37.5242 87.1568 37.1333 87.5355C36.4819 88.0405 36.091 88.6717 35.8304 89.5554C35.5698 90.4391 35.5698 91.1966 35.8304 91.9541C36.091 92.5853 36.4819 92.964 37.003 93.2165C37.5242 93.3428 38.1757 93.2165 38.6968 92.8378C39.3483 92.3328 39.7392 91.7016 39.9998 90.8179C40.5209 89.1767 39.8695 87.5355 38.6968 87.1568C38.6968 87.1568 38.5665 87.0305 38.4363 87.0305Z" fill="#3D1F04"/>
<path d="M37.0032 80.9709C37.0032 80.7184 24.1042 88.4193 24.1042 88.4193V88.5456C24.1042 89.0506 24.2345 92.0804 25.4072 94.1004C25.4072 94.1004 27.2313 98.0139 32.443 98.6452C32.7036 98.6452 32.8339 98.5189 32.8339 98.2664L32.0521 93.9741C32.0521 93.8479 32.0521 93.7216 32.1824 93.7216C36.0912 89.808 36.8729 82.7383 37.0032 80.9709Z" fill="#3D1F04"/>
<path d="M32.5731 99.1499C26.9705 98.5186 25.0161 94.4788 24.8859 94.2263C23.7132 92.0802 23.4526 89.0503 23.4526 88.4191C23.4526 88.2928 23.4526 88.1666 23.5829 88.0403L23.7132 87.9141L23.8435 87.7879C36.8728 80.0869 37.0031 80.0869 37.394 80.3394L37.6545 80.4657V80.8444C37.5242 82.8643 36.6122 89.8078 32.7034 93.7213L33.4852 97.8874C33.4852 98.1399 33.4852 98.3924 33.2246 98.6449C33.0943 99.0236 32.8337 99.1499 32.5731 99.1499ZM26.0585 93.8476C26.3191 94.4788 28.1432 97.2562 32.3125 97.8874L31.5308 93.8476C31.5308 93.5951 31.5308 93.3426 31.7914 93.0901C35.0487 89.934 36.091 84.3793 36.3516 81.7281C34.2669 82.8643 28.6643 86.1467 24.6253 88.5453C24.6253 89.3028 24.8859 91.9539 25.9282 93.5951L26.0585 93.8476Z" fill="#3D1F04"/>
<path d="M28.9253 91.1967C28.9253 91.1967 28.9253 91.323 28.9253 91.1967C28.9253 92.2067 29.4465 101.044 34.9188 98.0139C40.5213 94.8578 41.694 85.8944 41.8243 83.8745C41.8243 83.622 41.5637 83.4958 41.4334 83.622L30.3585 88.4193L30.2282 88.5456L28.9253 91.1967Z" fill="#F6ECD0"/>
<path d="M32.834 99.1501C32.3128 99.1501 31.7917 99.0238 31.4008 98.7713C28.7949 97.3826 28.4041 92.3329 28.4041 91.3229C28.4041 91.1967 28.4041 91.0704 28.5343 90.9442L29.8373 88.293C29.9676 88.1668 30.0979 88.0405 30.2282 87.9143L41.303 82.9908C41.5636 82.8645 41.9545 82.8645 42.0848 83.117C42.3454 83.2433 42.4757 83.4957 42.4757 83.8745C42.2151 86.5256 41.0424 95.3627 35.3096 98.5188C34.3975 98.8976 33.6158 99.1501 32.834 99.1501ZM29.4464 91.3229C29.5767 93.3428 30.0979 96.8777 31.922 97.7614C32.7037 98.1401 33.6158 98.0139 34.6581 97.3826C39.7395 94.6053 40.9122 86.6519 41.1727 84.127L30.619 88.798L29.4464 91.3229Z" fill="#3D1F04"/>
<path d="M24.6256 89.303L27.3617 90.818C28.1435 91.323 29.1858 91.323 29.9676 90.818L41.303 84.2533C41.9545 83.8745 41.9545 82.8646 41.303 82.4858L38.6972 80.9709C37.9154 80.4659 36.8731 80.4659 36.0913 80.9709L24.6256 87.5356C23.9741 87.9144 23.9741 88.9243 24.6256 89.303Z" fill="#EA9F4F"/>
<path d="M28.7948 91.828C28.2736 91.828 27.7525 91.7018 27.2313 91.4493L24.4951 89.9343C23.974 89.6818 23.7134 89.1769 23.7134 88.5456C23.7134 87.9144 23.974 87.4094 24.4951 87.157L35.9609 80.5922C37.0032 80.0873 38.1759 80.0873 39.2182 80.5922L41.8241 82.1072C42.3452 82.3597 42.6058 82.8646 42.6058 83.4959C42.6058 84.1271 42.3452 84.6321 41.8241 84.8845L30.4886 91.4493C29.8371 91.7018 29.316 91.828 28.7948 91.828ZM37.3941 81.2235C37.0032 81.2235 36.7426 81.3497 36.3518 81.4759L24.886 88.0407C24.6254 88.1669 24.6254 88.4194 24.6254 88.5456C24.6254 88.6719 24.6254 88.9244 24.886 89.0506L27.6222 90.5656C28.2736 90.9443 29.0554 90.9443 29.7068 90.5656L41.0423 84.0008C41.3029 83.8746 41.3029 83.6221 41.3029 83.4959C41.3029 83.3696 41.3029 83.2434 41.0423 82.9909L38.4365 81.4759C38.1759 81.3497 37.785 81.2235 37.3941 81.2235Z" fill="#3D1F04"/>
<path d="M33.8762 96.3728H32.7036V93.3429C32.7036 91.9542 33.4854 90.6918 34.658 89.9343C35.3095 89.5556 35.9609 89.5556 36.6124 89.9343C37.2639 90.3131 37.5244 90.818 37.5244 91.5755V94.2266H36.4821V91.5755C36.4821 91.323 36.3518 91.0705 36.0912 90.9443C35.8306 90.818 35.5701 90.818 35.3095 90.9443C34.3974 91.4493 33.8762 92.4592 33.8762 93.3429V96.3728Z" fill="#3D1F04"/>
<path d="M30.4886 88.1668C29.7069 88.1668 29.0554 87.5355 29.0554 86.7781V82.4857C29.0554 81.7283 29.7069 81.097 30.4886 81.097C31.2704 81.097 31.9219 81.7283 31.9219 82.4857V86.7781C32.0522 87.5355 31.2704 88.1668 30.4886 88.1668Z" fill="#3D1F04"/>
<path d="M35.4396 85.5156C34.6578 85.5156 34.0063 84.8844 34.0063 84.1269V79.8346C34.0063 79.0771 34.6578 78.4459 35.4396 78.4459C36.2213 78.4459 36.8728 79.0771 36.8728 79.8346V84.1269C37.0031 84.8844 36.3516 85.5156 35.4396 85.5156Z" fill="#3D1F04"/>
<path d="M49.9023 50.6723C49.1205 49.1574 47.8176 48.2737 46.5147 48.2737C44.43 48.0212 41.9544 48.3999 41.9544 48.3999L41.6938 51.556L45.9935 57.8683C46.1238 57.9945 46.3844 58.1208 46.5147 57.9945C48.7297 56.3533 49.772 54.9646 49.772 54.9646L49.9023 54.8384C50.684 53.8284 50.684 52.1873 49.9023 50.6723Z" fill="#EA9F4F"/>
<path d="M46.254 58.4993H46.1237C45.8632 58.4993 45.6026 58.3731 45.4723 58.1206L41.1726 51.6821L41.5635 47.8948L41.9544 47.7686C42.0847 47.7686 44.4299 47.2636 46.6449 47.6423C48.0781 47.6423 49.6416 48.7785 50.4234 50.2935C51.3354 52.1871 51.3354 53.8283 50.2931 54.9645L50.1628 55.0907C50.1628 55.0907 49.1205 56.6057 46.7752 58.2469C46.6449 58.4993 46.3843 58.4993 46.254 58.4993ZM42.215 51.4297L46.254 57.3631C48.3387 55.8482 49.2508 54.5858 49.2508 54.5858L49.3811 54.4595C50.1628 53.7021 50.1628 52.3134 49.3811 50.9247C48.7296 49.6622 47.557 48.7785 46.5146 48.7785H46.3843C44.9511 48.526 43.2573 48.7785 42.6058 48.9048L42.215 51.4297Z" fill="#3D1F04"/>
<path d="M47.1662 51.682C48.4691 54.3331 48.0782 57.2367 46.1238 58.1204C44.1694 59.1304 41.4333 57.7417 40.1304 55.0906C38.8274 52.4394 39.2183 49.5358 41.1727 48.6521C43.1271 47.7684 45.8632 49.0308 47.1662 51.682Z" fill="#EA9F4F"/>
<path d="M44.8208 59.0044C44.1693 59.0044 43.3875 58.8781 42.7361 58.4994C41.5635 57.8682 40.3908 56.732 39.7394 55.4695C39.0879 54.0808 38.697 52.5659 38.9576 51.3034C39.2182 49.9147 39.8696 48.7786 41.0423 48.2736C42.2149 47.7686 43.5178 47.7686 44.8208 48.3998C45.9934 49.031 47.166 50.1672 47.8175 51.4297C48.469 52.8184 48.8598 54.3333 48.5993 55.5958C48.3387 56.9844 47.6872 58.1207 46.5146 58.6256C45.8631 58.8781 45.3419 59.0044 44.8208 59.0044ZM42.6058 48.9048C42.2149 48.9048 41.824 49.031 41.5635 49.1573C40.7817 49.536 40.2605 50.2935 40.1302 51.4297C39.9999 52.5659 40.1302 53.8283 40.7817 54.9645C41.4332 56.1007 42.3452 57.1107 43.3875 57.6157C44.2996 58.1206 45.3419 58.1206 46.1237 57.7419C46.9055 57.3632 47.4266 56.6057 47.5569 55.4695C47.6872 54.3333 47.5569 53.0709 46.9055 51.9347C46.254 50.7985 45.3419 49.7885 44.2996 49.2835C43.6481 49.031 42.9967 48.9048 42.6058 48.9048Z" fill="#3D1F04"/>
<path d="M23.192 60.6455C23.192 60.6455 21.7588 63.1704 23.5829 66.4528C24.8858 68.7252 24.3646 73.27 23.9737 75.7949C23.7132 77.3098 23.5829 78.951 23.4526 80.4659L23.3223 82.3596C23.3223 82.6121 23.4526 82.8645 23.7132 82.9908L29.446 86.0207H29.5763C30.6187 84.8845 43.1268 70.2401 43.3874 69.8614C43.6479 69.4826 40.3906 59.2568 40.5209 58.8781C40.6512 58.4993 30.4884 54.8383 30.4884 54.8383L27.3614 55.217L24.8858 57.2369L23.192 60.6455Z" fill="#3D1F04"/>
<path d="M29.446 86.3994C29.3157 86.3994 29.1854 86.3994 29.1854 86.2732L23.4525 83.2433C23.0616 82.9908 22.8011 82.6121 22.8011 82.1071L22.9314 80.2134C23.0617 78.5722 23.1919 77.0573 23.4525 75.5424C23.8434 73.1437 24.3646 68.7252 23.1919 66.579C21.3678 63.1704 22.6708 60.5193 22.8011 60.2668L24.4949 56.8582L27.231 54.712L30.6186 54.207H30.7489C40.7815 57.7419 41.3026 58.2469 41.1723 58.7518C41.3026 59.2568 41.8238 61.1505 42.345 62.9179C44.2994 69.4826 44.1691 69.6089 43.9085 69.9876C43.6479 70.2401 35.3092 80.0872 30.358 85.7682L29.9672 86.1469C29.8369 86.2731 29.5763 86.3994 29.446 86.3994ZM23.7131 60.898C23.7131 61.0242 22.4102 63.1704 24.104 66.2003C25.4069 68.5989 25.016 72.765 24.4949 75.7949C24.2343 77.3098 24.104 78.8247 23.9737 80.4659L23.8434 82.3596V82.4858L29.3157 85.3894V85.2632C37.1333 76.1736 41.9541 70.4926 42.7358 69.6089C42.6056 68.8514 41.6935 65.569 41.042 63.4229C40.2603 60.6455 39.8694 59.6355 39.8694 59.1306C38.9574 58.6256 34.3971 56.8582 30.358 55.4695L27.6219 55.9745L25.2766 57.8681L23.7131 60.898Z" fill="#3D1F04"/>
<path d="M22.1498 60.5193C22.2801 61.0243 22.9316 61.1505 23.1921 60.6455C23.583 59.8881 24.3648 58.8781 26.3192 58.8781C29.4462 58.8781 34.0064 63.9279 31.14 71.7551C28.4038 78.8248 29.3159 84.7583 29.4462 85.7682C29.4462 85.8945 29.5765 85.8945 29.5765 85.8945L41.4331 79.2035C43.1269 78.1935 44.5601 76.6786 45.2116 74.7849C45.8631 73.0175 46.7751 70.3664 47.4266 67.4628C48.9901 61.0243 48.078 54.3333 46.2539 51.3034C44.5601 48.5261 39.7393 46.2537 39.7393 46.2537C39.7393 46.2537 29.4462 49.4098 24.7557 54.9645C22.2801 57.8682 22.0195 59.5093 22.1498 60.5193Z" fill="#F6ECD0"/>
<path d="M29.5764 86.3994C29.4461 86.3994 29.4461 86.3994 29.3158 86.3994C29.0553 86.2732 28.925 86.1469 28.925 85.8944C28.6644 84.7582 27.8826 78.6985 30.6188 71.5025C32.5732 66.2003 30.8794 62.9179 29.9673 61.6555C28.925 60.2668 27.4917 59.3831 26.3191 59.3831C25.0162 59.3831 24.2344 59.888 23.7133 60.898C23.4527 61.2767 23.0618 61.5292 22.5406 61.5292C22.0194 61.403 21.6286 61.1505 21.6286 60.6455C21.368 59.1306 22.28 57.1107 24.2344 54.712C28.925 49.1573 39.0878 46.0011 39.4787 45.8749L39.7393 45.7487L39.9998 45.8749C40.2604 46.0011 44.951 48.2735 46.7751 51.0509C48.5992 54.0808 49.6415 60.7718 48.078 67.589C47.2962 70.6188 46.5145 73.27 45.863 74.9111C45.0813 76.8048 43.7783 78.446 41.8239 79.5822L29.9673 86.2732C29.837 86.2732 29.7067 86.3994 29.5764 86.3994ZM26.3191 58.2469C27.8826 58.2469 29.5764 59.2568 30.8794 61.0242C32.964 63.9279 33.2246 67.8415 31.6611 71.8813C29.3158 77.941 29.7067 83.1171 29.9673 85.0107L41.1725 78.5722C42.8663 77.6885 44.0389 76.1736 44.6904 74.5324C45.3418 72.8912 46.1236 70.2401 46.9054 67.3365C48.4689 60.7718 47.4265 54.3333 45.7327 51.5559C44.2995 49.2835 40.521 47.2636 39.609 46.8849C38.1757 47.3898 29.1855 50.4197 25.1465 55.3432C23.3224 57.4894 22.5406 59.1306 22.8012 60.393L22.1497 60.5193L22.6709 60.393C23.0618 59.6356 23.9738 58.2469 26.3191 58.2469Z" fill="#3D1F04"/>
<path d="M45.6022 60.2667C41.4329 63.6753 36.4817 65.6952 35.4394 66.074C35.3091 66.074 35.3091 66.2002 35.3091 66.3265C35.3091 66.9577 35.4394 69.1038 34.5273 70.8713C34.5273 70.9975 34.5273 70.9975 34.6576 70.9975C35.7 70.6188 40.6511 68.5989 44.8205 65.1903V65.064C45.3416 63.5491 45.6022 61.9079 45.6022 60.2667Z" fill="#EA9F4F"/>
<path d="M34.3971 71.5025C34.2668 71.5025 34.0062 71.3763 33.8759 71.25C33.7456 70.9975 33.6153 70.745 33.7456 70.4925C34.6577 68.8514 34.5274 66.8314 34.5274 66.2002C34.5274 65.8215 34.6577 65.569 35.0485 65.4427C35.9606 65.064 40.9117 63.1703 45.0811 59.7617L45.9931 59.0043V60.1405C45.9931 61.9079 45.7325 63.5491 45.0811 65.1903L44.9508 65.4427L44.8205 65.569C40.5208 68.9776 35.4394 70.9975 34.5274 71.3762C34.6577 71.5025 34.5274 71.5025 34.3971 71.5025ZM35.7 66.4527C35.7 67.2102 35.7 68.5989 35.3091 70.1138C37.1332 69.3563 40.9117 67.5889 44.169 64.9378C44.5599 63.8016 44.8205 62.6654 44.9508 61.4029C41.1723 64.1803 37.0029 65.9477 35.7 66.4527Z" fill="#3D1F04"/>
<path d="M41.4331 76.4259C43.1269 73.5223 44.039 69.4825 44.039 69.1038C39.8696 71.8811 36.2214 73.5223 34.9185 73.9011C34.5276 74.0273 34.1367 74.406 34.0065 74.7848C33.2247 77.3097 32.9641 79.9608 32.9641 81.097C32.9641 81.3495 33.2247 81.4757 33.4853 81.3495L41.4331 76.4259Z" fill="#EA9F4F"/>
<path d="M33.355 81.7282C33.2247 81.7282 33.0944 81.7282 32.9641 81.602C32.7035 81.4757 32.5732 81.097 32.5732 80.8445C32.5732 79.8346 32.8338 77.0572 33.6156 74.4061C33.7459 73.7748 34.267 73.3961 34.7882 73.2699C36.3517 72.7649 39.8696 71.2499 43.7784 68.5988L44.039 68.3463L44.6905 68.7251V69.1038C44.5602 69.6088 43.6481 73.7748 41.9543 76.6785L41.824 76.8047L33.7459 81.602C33.6156 81.7282 33.4853 81.7282 33.355 81.7282ZM43.2572 70.24C39.4788 72.6386 36.3517 73.9011 35.1791 74.2798C34.9185 74.4061 34.7882 74.5323 34.6579 74.7848C34.0065 76.9309 33.7459 79.2033 33.6156 80.4658L41.0423 76.0472C42.0846 74.1536 42.8664 71.7549 43.2572 70.24Z" fill="#3D1F04"/>
<path d="M34.9185 63.9278L34.5276 62.9178C34.5276 62.9178 40.3908 60.7717 44.6904 57.1106L45.4722 57.8681C41.0422 61.7816 35.1791 63.8016 34.9185 63.9278Z" fill="#3D1F04"/>
<path d="M24.104 78.4459C24.104 78.4459 26.7099 79.8346 28.4037 80.2133L24.104 78.4459Z" fill="#3D1F04"/>
<path d="M28.2735 80.7184C26.5797 80.3397 23.9738 78.951 23.8435 78.8248L24.3647 77.941C24.3647 77.941 26.9705 79.3297 28.534 79.7085L28.2735 80.7184Z" fill="#EA9F4F"/>
<path d="M28.5338 62.1605C27.2309 59.5093 24.4947 58.1206 22.5404 59.1306C22.1495 59.3831 21.7586 59.6356 21.498 60.0143C19.6739 61.908 19.9345 64.1804 19.9345 64.1804C19.9345 64.1804 20.0648 66.074 22.0192 67.8415C23.4524 69.2302 25.6674 68.9777 26.5794 68.8514C26.7097 68.8514 26.7097 68.8514 26.84 68.8514C27.1006 68.8514 27.2309 68.7252 27.4915 68.5989C29.4459 67.7152 29.967 64.8116 28.5338 62.1605Z" fill="#EA9F4F"/>
<path d="M25.2761 69.6089C24.1035 69.6089 22.6702 69.3564 21.6279 68.3464C19.5432 66.4528 19.4129 64.4329 19.4129 64.3066C19.4129 64.1804 19.1523 61.7817 21.1067 59.6356C21.3673 59.2568 21.8885 58.8781 22.2794 58.6256C23.452 58.1206 24.7549 58.1206 26.0578 58.8781C27.3608 59.5093 28.4031 60.6455 29.0546 61.908C30.6181 64.8116 29.9666 67.9677 27.7516 69.1039C27.6214 69.2302 27.3608 69.2302 27.2305 69.3564H26.9699C26.8396 69.3564 26.7093 69.3564 26.7093 69.3564C26.4487 69.4827 25.9276 69.6089 25.2761 69.6089ZM23.9732 59.3831C23.5823 59.3831 23.1914 59.5093 22.8005 59.6356C22.5399 59.7618 22.1491 60.0143 21.8885 60.393C20.1947 62.1605 20.4553 64.1804 20.4553 64.1804C20.4553 64.1804 20.5856 65.9478 22.2794 67.4627C23.5823 68.5989 25.667 68.4727 26.4487 68.3464H26.579C26.8396 68.3464 26.9699 68.2202 27.1002 68.2202C28.794 67.4627 29.1849 64.8116 27.8819 62.413C27.2305 61.2768 26.3184 60.2668 25.2761 59.7618C25.0155 59.5093 24.4943 59.3831 23.9732 59.3831Z" fill="#3D1F04"/>
<path d="M24.7558 64.0543C25.5376 65.6954 25.277 67.4629 24.1043 68.0941C22.9317 68.7253 21.2379 67.8416 20.4561 66.2004C19.6744 64.5592 19.935 62.7918 21.1076 62.1606C22.2802 61.6556 23.974 62.5393 24.7558 64.0543Z" fill="#EA9F4F"/>
<path d="M23.3225 68.8514C22.0195 68.8514 20.7166 67.9677 19.9349 66.4527C19.4137 65.569 19.2834 64.5591 19.4137 63.8016C19.544 62.9179 20.0652 62.1604 20.8469 61.7817C21.6287 61.403 22.5407 61.403 23.3225 61.9079C24.1042 62.2867 24.7557 63.0441 25.2769 63.9278C26.1889 65.8215 25.798 67.9677 24.3648 68.5989C24.1042 68.7251 23.7134 68.8514 23.3225 68.8514ZM21.8893 62.5392C21.6287 62.5392 21.4984 62.5391 21.2378 62.6654C20.8469 62.9179 20.5863 63.2966 20.456 63.9278C20.3257 64.5591 20.456 65.3165 20.8469 65.9478C21.4984 67.3364 22.9316 67.9677 23.8436 67.5889C24.7557 67.084 24.886 65.6953 24.2345 64.3066C23.8436 63.6754 23.3225 63.0441 22.8013 62.7916C22.5407 62.6654 22.2801 62.5392 21.8893 62.5392Z" fill="#3D1F04"/>
<path d="M29.1856 94.479C27.7524 93.2165 25.798 92.964 24.886 93.8478C24.6254 94.1003 24.4951 94.3527 24.4951 94.6052C23.8436 96.2464 24.4951 97.5089 24.4951 97.5089C24.4951 97.5089 25.0163 98.6451 26.5798 99.2763C27.7524 99.7813 29.0554 99.15 29.5765 98.8976C29.5765 98.8976 29.7068 98.8975 29.7068 98.7713C29.8371 98.6451 29.9674 98.6451 29.9674 98.5188C31.0097 97.6351 30.6189 95.7414 29.1856 94.479Z" fill="#EA9F4F"/>
<path d="M27.492 100.034C27.1011 100.034 26.7102 99.9075 26.1891 99.7813C24.4953 99.0238 23.8438 97.7614 23.8438 97.7614C23.8438 97.7614 23.062 96.2464 23.8438 94.479C23.9741 94.1003 24.1044 93.8478 24.365 93.5953C25.0164 92.9641 25.7982 92.7116 26.8405 92.8378C27.7526 92.9641 28.6646 93.4691 29.4464 94.1003C30.2281 94.8577 30.7493 95.7415 30.8796 96.6252C31.0099 97.6351 30.8796 98.3926 30.2281 99.0238C30.0978 99.1501 30.0978 99.1501 29.9675 99.2763C29.8373 99.2763 29.8373 99.4026 29.8373 99.4026C29.3161 99.655 28.404 100.034 27.492 100.034ZM26.4496 93.8478C25.9285 93.8478 25.5376 93.974 25.277 94.2265C25.1467 94.3528 25.0164 94.6053 25.0164 94.7315C24.365 96.1202 25.0164 97.1302 25.0164 97.2564C25.0164 97.2564 25.5376 98.2663 26.8405 98.7713C27.7526 99.1501 28.9252 98.6451 29.3161 98.3926H29.4464C29.5767 98.2664 29.5767 98.2664 29.707 98.2664C30.0978 97.8876 30.2281 97.3826 30.0978 96.7514C29.9675 96.1202 29.5767 95.3627 28.9252 94.8577C28.2737 94.3528 27.6223 93.974 26.8405 93.8478C26.7102 93.8478 26.5799 93.8478 26.4496 93.8478Z" fill="#3D1F04"/>
<path d="M27.3615 96.3726C28.2736 97.1301 28.4039 98.3926 27.8827 98.8975C27.2312 99.5288 26.0586 99.4025 25.1466 98.5188C24.2345 97.7613 24.1042 96.4989 24.6254 95.9939C25.2768 95.4889 26.4495 95.6152 27.3615 96.3726Z" fill="#EA9F4F"/>
<path d="M26.8405 99.9076C26.1891 99.9076 25.4073 99.6551 24.7558 99.0239C24.2347 98.5189 23.8438 98.0139 23.8438 97.3827C23.7135 96.7515 23.8438 96.1203 24.2347 95.7416C24.6255 95.3628 25.277 95.1103 25.9285 95.2366C26.5799 95.3628 27.2314 95.6153 27.6223 96.1203C28.1434 96.6253 28.5343 97.1302 28.5343 97.7615C28.6646 98.3927 28.5343 99.0239 28.1434 99.4026C27.8829 99.7814 27.3617 99.9076 26.8405 99.9076ZM25.6679 96.2465C25.5376 96.2465 25.277 96.2465 25.1467 96.499C24.8861 96.7515 24.8861 97.004 25.0164 97.2565C25.1467 97.6352 25.277 98.014 25.6679 98.2664C26.3193 98.8977 27.2314 99.0239 27.492 98.6452C27.7526 98.3927 27.7526 98.1402 27.6223 97.8877C27.492 97.509 27.3617 97.1302 26.9708 96.8777C26.5799 96.6253 26.1891 96.3728 25.7982 96.3728C25.7982 96.2465 25.6679 96.2465 25.6679 96.2465Z" fill="#3D1F04"/>
<path d="M35.3093 156.086L35.0487 155.076C34.9184 154.824 34.7881 154.445 34.6578 154.193L29.4461 149.395C29.3158 149.269 29.0552 149.017 28.925 149.017L26.1888 147.502C25.9282 147.375 25.6676 147.375 25.5373 147.375L23.9738 148.007L22.6709 150.279L23.1921 152.173L31.4005 159.242L34.9184 157.096C35.3093 156.844 35.5699 156.465 35.5699 155.96C35.3093 156.213 35.3093 156.086 35.3093 156.086Z" fill="#EA9F4F"/>
<path d="M31.1399 160L22.5406 152.552L21.8892 150.279L23.4527 147.628L25.2768 146.871C25.6676 146.744 26.0585 146.744 26.4494 146.997L29.1856 148.512C29.4461 148.638 29.7067 148.89 29.837 149.143L35.0487 153.814C35.3093 154.193 35.5699 154.571 35.7002 154.95L35.9608 155.96C35.9608 156.086 35.9608 156.086 35.9608 156.213C36.0911 156.844 35.7002 157.475 35.0487 157.854L31.1399 160ZM23.583 152.047L31.4005 158.737L34.5276 156.844C34.7881 156.718 34.9184 156.465 34.9184 156.339L35.4396 156.086L34.9184 156.213L34.6578 155.203C34.6578 154.95 34.5275 154.824 34.267 154.571L29.0553 149.9C28.925 149.648 28.7947 149.648 28.6644 149.522L25.9282 148.007C25.7979 147.88 25.7979 148.007 25.7979 148.007L24.3647 148.638L23.1921 150.532L23.583 152.047Z" fill="#3D1F04"/>
<path d="M29.316 149.395C29.1857 149.269 28.9251 149.017 28.7948 149.017L26.0587 147.502C25.7981 147.375 25.5375 147.375 25.4072 147.375L23.8437 148.007L20.0652 150.279V150.405L23.0619 152.299L26.8404 155.203C27.7525 154.698 29.316 157.096 29.4463 157.096C29.4463 157.096 29.8371 156.97 30.0977 156.844L34.3974 154.319C34.5277 154.193 34.5277 154.066 34.3974 153.94L29.316 149.395Z" fill="#F6ECD0"/>
<path d="M29.4464 157.601C29.1858 157.601 28.9252 157.349 28.6646 156.97C27.7526 155.834 27.2314 155.581 27.1011 155.581L26.7102 155.834L26.4496 155.581L22.6711 152.678L19.4138 150.658V150.279C19.4138 150.027 19.5441 149.9 19.6744 149.774L23.5832 147.502L25.1467 146.871C25.5376 146.744 25.9285 146.744 26.3193 146.997L29.0555 148.512C29.3161 148.638 29.4464 148.764 29.7069 149.017L34.7884 153.688C34.9187 153.814 35.0489 154.066 34.9187 154.319C34.9187 154.571 34.7884 154.698 34.5278 154.824L30.2281 157.349C30.0978 157.475 29.8372 157.475 29.4464 157.601C29.4464 157.601 29.5767 157.601 29.4464 157.601ZM27.1011 154.571C28.0131 154.571 28.9252 155.581 29.4464 156.339L29.5767 156.465C29.7069 156.465 29.8372 156.339 29.8372 156.339L33.746 154.066L28.9252 149.774C28.7949 149.648 28.6646 149.522 28.5343 149.522L25.7982 148.007C25.6679 147.88 25.6679 148.007 25.6679 148.007L24.1044 148.638L20.9773 150.532L23.3226 151.92L26.9708 154.698C26.9708 154.571 26.9708 154.571 27.1011 154.571Z" fill="#3D1F04"/>
<path d="M19.6743 151.037V152.173C19.6743 152.804 20.0652 153.562 20.7167 153.814L30.6189 159.369C31.2704 159.748 31.7915 159.243 31.531 158.359L31.2704 157.349C31.1401 157.096 31.0098 156.718 30.8795 156.465L25.6678 151.668C25.5375 151.542 25.2769 151.289 25.1466 151.289L22.4105 149.774C22.1499 149.648 21.8893 149.648 21.759 149.648L20.1955 150.279C19.8046 150.532 19.6743 150.658 19.6743 151.037Z" fill="#3D1F04"/>
<path d="M30.8795 160C30.6189 160 30.3583 159.874 30.0978 159.748L20.1955 154.193C19.4137 153.814 18.8926 152.93 18.8926 152.047V150.91C18.8926 150.405 19.1532 149.9 19.544 149.774L21.1076 149.143C21.4984 149.017 21.8893 149.017 22.2802 149.269L25.0163 150.784C25.2769 150.91 25.5375 151.163 25.6678 151.415L30.8795 156.086C31.1401 156.465 31.4007 156.844 31.531 157.223L31.7916 158.233C31.9218 158.864 31.7916 159.495 31.4007 159.748C31.4007 160 31.1401 160 30.8795 160ZM20.1955 150.91C20.1955 150.91 20.1955 150.91 20.1955 151.037V152.173C20.1955 152.552 20.5864 153.183 20.847 153.435L30.7492 158.99C30.8795 158.99 30.8795 159.116 30.8795 158.99C30.8795 158.99 30.8795 158.864 30.8795 158.611L30.6189 157.601C30.6189 157.349 30.4886 157.223 30.228 156.97L25.0163 152.299C24.886 152.047 24.7557 152.047 24.6255 151.92L21.8893 150.405C21.759 150.405 21.759 150.405 21.759 150.405L20.1955 150.91Z" fill="#3D1F04"/>
<path d="M25.6682 150.91C27.6225 151.037 29.3163 150.279 29.4466 149.269C29.4466 149.017 29.4466 148.89 29.3163 148.638C28.7952 147.502 27.362 147.123 27.362 147.123C27.362 147.123 26.1893 146.744 24.4955 147.123C23.1926 147.375 22.6714 148.259 22.4108 148.764C22.4108 148.764 22.4108 148.764 22.4108 148.89C22.4108 149.017 22.2805 149.017 22.2805 149.143C22.1502 150.027 23.7138 150.91 25.6682 150.91Z" fill="#EA9F4F"/>
<path d="M25.9286 151.415C25.7983 151.415 25.7983 151.415 25.668 151.415C24.1045 151.415 22.8015 150.91 22.1501 150.152C21.7592 149.774 21.6289 149.395 21.6289 148.89C21.6289 148.764 21.6289 148.764 21.6289 148.764L21.7592 148.511V148.385C22.0198 148.006 22.6712 146.87 24.2348 146.491C26.0589 146.113 27.3618 146.491 27.3618 146.491C27.3618 146.491 29.0556 146.996 29.7071 148.385C29.8373 148.637 29.9676 148.89 29.9676 149.269C29.9676 150.531 28.1435 151.415 25.9286 151.415ZM22.8015 148.89V149.016C22.8015 149.142 22.8015 149.269 22.9318 149.395C23.453 149.9 24.4953 150.279 25.668 150.279C27.4921 150.279 28.795 149.647 28.795 149.142C28.795 149.016 28.795 149.016 28.6647 148.89C28.1435 147.88 26.9709 147.501 26.9709 147.501C26.9709 147.501 25.9286 147.123 24.3651 147.501C23.5833 147.754 23.0621 148.511 22.8015 148.89Z" fill="#3D1F04"/>
<path d="M25.7984 149.017C24.6257 149.017 23.5834 148.512 23.7137 147.88C23.7137 147.249 24.756 146.87 26.0589 146.87C27.2316 146.87 28.2739 147.375 28.1436 148.007C28.0133 148.512 26.971 149.017 25.7984 149.017Z" fill="#EA9F4F"/>
<path d="M25.9287 149.522H25.7984C24.7561 149.522 23.9743 149.143 23.4531 148.638C23.1925 148.385 23.0623 148.007 23.0623 147.754C23.1925 146.87 24.3652 146.113 25.9287 146.239C26.971 146.239 27.7528 146.618 28.274 147.123C28.5345 147.375 28.6648 147.754 28.6648 148.007C28.5345 148.89 27.4922 149.522 25.9287 149.522ZM25.7984 147.375C24.7561 147.375 24.2349 147.754 24.2349 147.88C24.2349 147.88 24.2349 147.88 24.2349 148.007C24.4955 148.259 25.0166 148.512 25.7984 148.512C26.8407 148.512 27.4922 148.133 27.4922 148.007C27.4922 148.007 27.4922 148.007 27.4922 147.88C27.2316 147.628 26.7105 147.375 25.9287 147.375H25.7984Z" fill="#3D1F04"/>
<path d="M63.0617 79.5822C59.6741 79.5822 56.4168 78.1935 53.6807 75.2899L56.8077 72.5125C60.9771 76.8048 65.407 75.6686 68.2734 73.9012C70.4884 72.6387 72.4428 71.6288 74.3972 70.7451L75.3092 70.3663L77.0031 74.1537L76.091 74.5324C74.3972 75.2899 72.5731 76.1736 70.4884 77.436C68.0129 78.8247 65.5373 79.5822 63.0617 79.5822Z" fill="#3D1F04"/>
<path d="M84.8203 71.8813L84.4294 72.0075C83.6477 72.3862 82.4751 72.3862 81.3024 72.0075C81.1721 72.0075 81.1721 71.8813 81.1721 71.755L82.2145 70.1138C82.3448 69.7351 82.0842 69.2301 81.4327 68.9776L78.9572 67.5889C78.5663 67.4627 78.3057 67.3364 78.0451 67.4627L75.0484 68.7251C74.9181 68.7251 74.7878 68.8514 74.7878 69.1039L73.4849 71.1238C73.4849 71.25 73.4849 71.25 73.4849 71.3763C73.7454 71.6288 74.3969 72.5125 74.6575 72.8912C74.7878 73.0175 74.9181 73.0175 75.0484 72.8912L75.6998 71.755C75.8301 72.0075 75.9604 72.1337 76.221 72.26L76.7422 72.6387C76.7422 72.6387 76.8725 72.6387 76.8725 72.765L78.5663 73.7749C79.7389 74.4061 80.9115 74.9111 81.9539 75.0374C81.9539 75.0374 81.9539 75.0374 82.0842 75.0374L83.778 75.9211C83.9083 75.9211 84.0386 75.9211 84.0386 75.7948L85.4718 73.6487C85.7324 73.2699 85.7324 72.765 85.7324 72.3862C85.3415 72.0075 85.0809 71.755 84.8203 71.8813Z" fill="#F6ECD0"/>
<path d="M83.6468 76.2997C83.5165 76.2997 83.3862 76.2997 83.2559 76.1735L81.6924 75.2898C80.5198 75.1635 79.3471 74.6586 78.1745 74.0273L75.8292 72.6387C75.8292 72.6387 75.8292 72.6387 75.6989 72.6387L75.5686 73.0174C75.4384 73.2699 75.1778 73.3961 74.9172 73.3961C74.6566 73.3961 74.396 73.2699 74.2657 73.1436L74.0051 72.7649C73.6143 72.3862 73.2234 71.8812 73.0931 71.6287C72.9628 71.3762 72.9628 71.1237 73.0931 70.8712L74.2657 68.9776C74.396 68.7251 74.5263 68.4726 74.7869 68.3463L77.7836 67.0839C78.1745 66.9577 78.6957 66.9577 79.2168 67.2101L81.6924 68.5988C82.4742 68.9776 82.9953 69.8613 82.7347 70.3663V70.4925L81.953 71.7549C82.865 71.8812 83.6468 71.8812 84.2983 71.6287L84.8194 71.3762C85.08 71.25 85.3406 71.25 85.6012 71.5025C85.8618 71.6287 86.1224 71.8812 86.1224 72.2599C86.1224 72.8911 85.9921 73.3961 85.7315 73.9011L84.2983 76.1735C84.168 76.1735 83.9074 76.2997 83.6468 76.2997ZM77.0019 72.1337L78.6957 73.1436C79.738 73.7749 80.7804 74.1536 81.8227 74.2798H81.953L82.0833 74.4061L83.3862 75.1635L84.6891 73.2699C84.8194 73.0174 84.8194 72.7649 84.8194 72.5124H84.6891C83.7771 72.8911 82.4742 73.0174 81.1712 72.6387C80.9106 72.5124 80.7804 72.3862 80.6501 72.1337C80.5198 71.8812 80.5198 71.6287 80.6501 71.5025L81.6924 69.8613C81.6924 69.8613 81.5621 69.6088 81.1712 69.3563L78.6957 67.9676C78.4351 67.8414 78.3048 67.8414 78.1745 67.8414L75.1778 69.1038L74.0051 70.9975C74.1354 71.25 74.5263 71.6287 74.6566 71.8812L75.4384 70.3663L75.9595 71.3762C75.9595 71.5025 76.0898 71.6287 76.3504 71.7549L77.0019 72.1337L76.7413 72.6387L77.0019 72.1337Z" fill="#3D1F04"/>
<path d="M75.4393 74.6587L77.1331 75.6687C78.9572 76.8049 81.0418 77.1836 82.3448 76.8049C83.5174 76.4261 84.1689 75.5424 84.1689 74.28C84.1689 74.0275 83.778 73.9012 83.6477 73.9012L83.1265 74.1537C82.0842 74.6587 80.5207 74.5325 78.8269 73.775C78.3057 73.5225 77.9148 73.0175 77.9148 72.6388L78.0451 72.1338C78.1754 71.7551 78.5663 71.7551 79.0875 71.8813L79.8692 72.2601C80.2601 72.3863 80.5207 72.3863 80.7813 72.2601C81.1721 72.0076 80.9116 71.3764 80.1298 70.9976L77.6542 69.7352C77.2634 69.6089 77.0028 69.4827 76.7422 69.6089L73.7454 70.8714C73.6152 70.8714 73.4849 70.9976 73.4849 71.2501V71.8813C73.4849 72.0076 73.4849 72.1338 73.6152 72.2601L74.3969 73.9012C74.5272 74.1537 74.6575 74.28 74.9181 74.4062L75.4393 74.6587Z" fill="#EA9F4F"/>
<path d="M81.1722 77.4361C79.8693 77.4361 78.3058 76.9311 76.8726 76.0474L75.1788 75.0374C75.1788 75.0374 75.0485 75.0374 75.0485 74.9112L74.5273 74.5324C74.2667 74.2799 74.0061 74.0275 73.8758 73.775L72.9638 72.3863C72.8335 72.1338 72.8335 71.8813 72.8335 71.7551V71.1238C72.8335 70.7451 73.0941 70.4926 73.485 70.3664L76.4817 69.1039C76.8726 68.9777 77.3937 68.9777 77.9149 69.2302L80.3905 70.4926C81.0419 70.8713 81.4328 71.3763 81.4328 71.8813C81.4328 72.26 81.3025 72.5125 81.0419 72.765C80.6511 73.0175 80.1299 73.0175 79.6087 72.765L78.827 72.3863C78.6967 72.3863 78.5664 72.26 78.5664 72.26L78.4361 72.6388C78.4361 72.765 78.5664 73.0175 78.9573 73.1437C80.3905 73.775 81.8237 73.9012 82.7357 73.5225L83.1266 73.27C83.3872 73.1437 83.6478 73.1437 83.9084 73.3962C84.169 73.5225 84.4296 73.775 84.4296 74.1537C84.5598 75.5424 83.7781 76.6786 82.3449 77.1836C82.0843 77.4361 81.5631 77.4361 81.1722 77.4361ZM73.8758 71.7551C73.8758 71.7551 74.0061 71.7551 73.8758 71.7551L74.7879 73.3962C74.7879 73.5225 74.9182 73.6487 75.1788 73.775L75.8302 74.1537L77.524 75.1637C79.2178 76.1736 81.0419 76.5523 82.3449 76.1736C83.2569 75.9211 83.6478 75.2899 83.7781 74.5324L83.3872 74.6587C82.2146 75.1637 80.3905 75.0374 78.6967 74.2799C78.0452 74.0275 77.3937 73.27 77.524 72.5125L77.6543 72.0075C77.6543 71.7551 77.9149 71.5026 78.1755 71.3763C78.5664 71.2501 78.9573 71.2501 79.4784 71.3763L80.2602 71.7551C80.3905 71.7551 80.3905 71.7551 80.5208 71.8813C80.3905 71.7551 80.2602 71.6288 80.1299 71.5026L77.6543 70.2401C77.3937 70.1139 77.2634 70.1139 77.1332 70.1139L74.1364 71.2501L73.8758 71.7551Z" fill="#3D1F04"/>
<path d="M52.8986 74.7848C53.0289 74.9111 53.2895 75.1636 53.4198 75.2898C54.0713 75.7948 54.7227 76.2998 55.5045 76.6785C56.2862 77.1835 57.4589 77.436 58.5012 77.436C60.3253 77.3097 61.6282 76.1735 62.0191 75.6685C62.1494 75.5423 62.1494 75.4161 62.1494 75.1636C61.7585 74.2799 60.0647 71.1237 57.5892 69.735C56.2862 68.9776 54.853 68.9776 53.8107 69.3563C51.8563 70.1138 51.3351 72.8912 52.6381 74.4061L52.8986 74.7848Z" fill="#EA9F4F"/>
<path d="M58.1105 77.9409C57.0681 77.9409 56.0258 77.6884 55.1138 77.1835C54.2017 76.6785 53.5502 76.2997 53.0291 75.7948C52.7685 75.6685 52.6382 75.416 52.5079 75.2898L52.117 74.7848C51.3353 73.9011 51.0747 72.7649 51.3353 71.5025C51.5959 70.24 52.3776 69.3563 53.42 68.8513C54.7229 68.3463 56.2864 68.4726 57.7196 69.2301C60.3255 70.6187 62.0193 73.9011 62.4101 74.9111C62.5404 75.2898 62.5404 75.6685 62.2799 75.921C61.7587 76.426 60.3255 77.6884 58.3711 77.8147C58.3711 77.9409 58.2408 77.9409 58.1105 77.9409ZM53.2897 74.4061C53.42 74.5323 53.5502 74.6586 53.8108 74.9111C54.332 75.416 54.9835 75.7948 55.7652 76.2997C56.547 76.8047 57.5893 77.0572 58.3711 76.931C59.9346 76.8047 61.1072 75.7948 61.4981 75.416C60.9769 74.4061 59.5437 71.6287 57.1984 70.3663C56.0258 69.735 54.8532 69.6088 53.8108 70.1138C53.0291 70.3663 52.5079 71.1237 52.3776 72.0074C52.117 72.8911 52.3776 73.7749 52.8988 74.2798L53.2897 74.4061Z" fill="#3D1F04"/>
<path d="M60.7165 72.8912C59.9347 71.755 58.8924 70.4925 57.4592 69.7351C56.938 69.4826 56.5471 69.3563 56.026 69.2301C56.026 69.2301 54.8533 70.1138 54.2019 71.3763C53.811 72.0075 54.0716 72.8912 54.5928 73.3962C54.9836 73.7749 55.5048 74.1536 56.1563 74.5324C57.4592 75.2898 59.2833 75.0373 60.1953 73.7749C60.5862 73.3962 60.7165 73.1437 60.7165 72.8912Z" fill="#F6ECD0"/>
<path d="M57.8502 75.4169C57.1987 75.4169 56.5473 75.2907 55.8958 74.912C55.2443 74.5332 54.7232 74.1545 54.202 73.7758C53.4202 73.1445 53.1596 72.0083 53.6808 71.1246C54.3323 69.7359 55.5049 68.8522 55.7655 68.726L55.8958 68.5997H56.1564C56.6775 68.726 57.1987 68.8522 57.7199 69.231C58.8925 69.8622 60.0652 70.9984 61.1075 72.6396L61.2378 72.892V73.0183C61.1075 73.2708 60.9772 73.6495 60.7166 73.902C60.1954 74.912 59.0228 75.4169 57.8502 75.4169ZM56.2867 69.7359C56.0261 69.9884 55.2443 70.6196 54.8534 71.5034C54.5929 72.0083 54.7232 72.5133 55.114 72.892C55.5049 73.2708 56.0261 73.6495 56.5473 73.902C57.7199 74.5332 59.1531 74.2807 59.8046 73.2708C59.9349 73.1445 59.9349 73.0183 60.0651 72.892C59.1531 71.6296 58.2411 70.6196 57.1987 70.1147C56.9381 69.9884 56.5473 69.8622 56.2867 69.7359Z" fill="#3D1F04"/>
<path d="M17.85 80.0872L13.5503 79.8348C14.332 68.8515 20.977 63.8017 21.2376 63.5492L23.8434 66.8316L22.5405 65.1904L23.8434 66.8316C23.7131 66.9578 18.5014 71.1239 17.85 80.0872Z" fill="#3D1F04"/>
<path d="M17.85 85.137H13.5503V103.821H17.85V85.137Z" fill="#3D1F04"/>
<path d="M18.241 111.901L17.8501 111.522C17.3289 110.891 16.9381 109.881 16.9381 108.618C16.9381 108.492 17.0683 108.366 17.1986 108.492L19.153 108.997C19.5439 108.997 19.9348 108.618 20.0651 107.987L20.7165 105.336C20.8468 104.957 20.7165 104.579 20.5862 104.452L18.6319 101.927C18.5016 101.801 18.3713 101.801 18.241 101.801L16.1563 101.044C16.026 101.044 16.026 101.044 15.8957 101.044C15.6351 101.296 14.9837 102.18 14.7231 102.559C14.5928 102.685 14.7231 102.811 14.8534 102.811L16.1563 103.064C16.026 103.19 15.8957 103.442 15.7654 103.695L15.5048 104.326V104.452L14.9837 106.22C14.5928 107.482 14.4625 108.618 14.7231 109.755C14.7231 109.755 14.7231 109.755 14.7231 109.881L14.2019 111.648C14.2019 111.774 14.2019 111.901 14.3322 111.901L16.8078 112.658C17.1986 112.784 17.7198 112.784 18.241 112.532C18.3713 112.406 18.3713 112.027 18.241 111.901Z" fill="#F6ECD0"/>
<path d="M17.1986 113.163C16.938 113.163 16.8077 113.163 16.5471 113.163L13.9413 112.406C13.5504 112.279 13.2898 111.901 13.4201 111.522L13.9413 109.755C13.811 108.618 13.9413 107.356 14.3322 106.094L15.1139 103.569C15.1139 103.569 15.1139 103.569 15.1139 103.442L14.5928 103.316C14.3322 103.316 14.0716 103.064 14.0716 102.811C13.9413 102.559 14.0716 102.306 14.2019 102.054L14.4625 101.675C14.8533 101.17 15.2442 100.665 15.3745 100.539C15.6351 100.286 15.8957 100.286 16.1563 100.286L18.3712 100.917C18.6318 100.917 18.8924 101.044 19.153 101.296L21.1074 103.821C21.368 104.2 21.4983 104.705 21.368 105.21L20.8468 108.113C20.5862 108.997 19.9348 109.628 19.2833 109.502H19.153L17.5895 109.123C17.5895 110.007 17.8501 110.765 18.241 111.27L18.6318 111.648C18.7621 111.901 18.8924 112.153 18.7621 112.406C18.6318 112.784 18.5015 112.911 18.241 113.037C17.9804 113.163 17.5895 113.163 17.1986 113.163ZM14.7231 111.522L16.938 112.153C17.1986 112.153 17.4592 112.153 17.7198 112.153L17.5895 112.027C16.938 111.143 16.5471 110.007 16.5471 108.618C16.5471 108.366 16.6774 108.113 16.8077 107.987C16.938 107.861 17.1986 107.861 17.4592 107.861L19.4136 108.366C19.4136 108.366 19.6742 108.113 19.6742 107.735L20.3256 105.084C20.3256 104.831 20.3256 104.705 20.3256 104.579L18.5015 102.306L16.2866 101.675C16.1563 101.927 15.7654 102.306 15.6351 102.559L17.4592 102.937L16.4169 103.569C16.2866 103.695 16.1563 103.821 16.1563 103.947L15.8957 104.579L15.3745 104.452L15.8957 104.579L15.3745 106.346C14.9836 107.482 14.9836 108.618 15.1139 109.628V109.755V109.881L14.7231 111.522Z" fill="#3D1F04"/>
<path d="M13.0291 103.821L12.5079 105.589C11.8565 107.609 11.9868 109.628 12.7685 110.765C13.42 111.775 14.5926 112.153 15.7653 111.775C15.8955 111.648 16.0258 111.396 15.8955 111.143L15.5047 110.765C14.7229 109.881 14.4623 108.366 14.7229 106.725C14.8532 106.094 15.2441 105.589 15.635 105.589H16.1561C16.547 105.589 16.6773 105.967 16.6773 106.472L16.547 107.356C16.547 107.735 16.547 107.987 16.8076 108.24C17.1985 108.492 17.7196 108.114 17.9802 107.356L18.6317 104.705C18.762 104.326 18.6317 103.947 18.5014 103.821L16.547 101.296C16.2864 101.044 16.1561 101.044 16.0258 101.044L15.3744 101.17C15.2441 101.17 15.1138 101.296 14.9835 101.296L13.5503 102.559C13.42 102.685 13.2897 102.937 13.1594 103.19L13.0291 103.821Z" fill="#EA9F4F"/>
<path d="M14.8534 112.531C13.8111 112.531 12.899 112.026 12.3779 111.143C11.4658 109.88 11.3355 107.734 11.987 105.462L12.5082 103.694V103.568L12.7688 102.937C12.899 102.558 13.1596 102.306 13.2899 102.053L14.7231 100.791C14.8534 100.664 15.114 100.538 15.3746 100.538L16.0261 100.412C16.417 100.412 16.6775 100.538 16.9381 100.791L18.8925 103.315C19.1531 103.694 19.2834 104.199 19.1531 104.704L18.5016 107.355C18.3713 107.987 17.8502 108.618 17.329 108.744C16.9381 108.87 16.6775 108.744 16.417 108.618C16.0261 108.365 15.8958 107.86 16.0261 107.355L16.1564 106.472C16.1564 106.345 16.1564 106.219 16.1564 106.219H15.7655C15.7655 106.219 15.5049 106.472 15.3746 106.85C15.114 108.365 15.3746 109.754 16.0261 110.511L16.417 110.89C16.5472 111.143 16.6775 111.395 16.5472 111.648C16.417 112.026 16.2867 112.153 16.0261 112.279C15.5049 112.405 15.114 112.531 14.8534 112.531ZM15.5049 101.674L14.0717 102.937C13.9414 103.063 13.8111 103.189 13.8111 103.315L13.5505 103.947L13.0293 105.84C12.5082 107.734 12.5082 109.501 13.2899 110.638C13.8111 111.395 14.4626 111.648 15.3746 111.521L15.2443 111.395C14.3323 110.385 14.0717 108.744 14.3323 106.85C14.4626 106.093 14.9837 105.335 15.7655 105.335H16.2867C16.5472 105.335 16.8078 105.462 17.0684 105.588C17.329 105.84 17.4593 106.345 17.329 106.85L17.1987 107.734C17.1987 107.86 17.1987 107.86 17.1987 107.987C17.329 107.86 17.4593 107.734 17.4593 107.482L18.1108 104.83C18.1108 104.578 18.1108 104.452 18.1108 104.325L16.1564 101.927L15.5049 101.674Z" fill="#3D1F04"/>
<path d="M12.8989 81.3496C12.8989 81.6021 12.8989 81.8546 12.8989 82.1071C12.8989 82.9908 13.0292 83.7483 13.1595 84.5057C13.2898 85.3894 13.811 86.3994 14.5927 87.1569C15.8957 88.4193 17.5895 88.5455 18.2409 88.5455C18.3712 88.5455 18.6318 88.4193 18.6318 88.2931C19.0227 87.4093 20.4559 84.127 19.9347 81.4759C19.6741 79.9609 18.7621 78.951 17.7198 78.446C15.8957 77.5623 13.2898 78.951 13.0292 80.9709L12.8989 81.3496Z" fill="#EA9F4F"/>
<path d="M18.2408 89.0505C18.1105 89.0505 18.1105 89.0505 18.2408 89.0505C17.459 89.0505 15.5046 88.798 14.0714 87.4093C13.2897 86.6518 12.7685 85.6419 12.5079 84.5057C12.3776 83.4957 12.2473 82.7382 12.2473 81.9808C12.2473 81.7283 12.2473 81.4758 12.2473 81.2233V80.8446C12.3776 79.7084 13.1594 78.6984 14.332 78.0672C15.5046 77.436 16.6773 77.436 17.7196 77.9409C19.0225 78.5722 19.9346 79.8346 20.3255 81.3495C20.8466 84.1269 19.5437 87.5355 19.0225 88.5455C18.8922 88.798 18.6317 89.0505 18.2408 89.0505ZM13.4199 81.3495C13.4199 81.602 13.4199 81.7283 13.4199 81.9808C13.4199 82.7382 13.5502 83.3694 13.6805 84.2532C13.8108 85.1369 14.332 86.0206 14.9835 86.6518C16.0258 87.788 17.5893 87.9142 18.2408 87.9142C18.6317 86.9043 19.9346 84.0007 19.4134 81.4758C19.1528 80.2133 18.5014 79.3296 17.459 78.8246C16.6773 78.4459 15.8955 78.5722 14.9835 78.9509C14.2017 79.3296 13.6805 80.0871 13.5502 80.8446L13.4199 81.3495Z" fill="#3D1F04"/>
<path d="M19.4134 85.8943C19.8043 84.5056 20.0649 82.8645 19.8043 81.4758C19.674 80.9708 19.5437 80.4658 19.2831 80.0871C19.2831 80.0871 17.8499 79.8346 16.4167 80.2133C15.6349 80.4658 15.1138 81.097 15.1138 81.8545C15.1138 82.3595 15.1138 82.9907 15.2441 83.7482C15.5046 85.2631 16.9379 86.3993 18.5014 86.2731C18.8923 86.1468 19.1528 86.0206 19.4134 85.8943Z" fill="#F6ECD0"/>
<path d="M18.2407 86.6518C16.5469 86.6518 14.9834 85.3894 14.7228 83.7482C14.5925 83.117 14.5925 82.3595 14.5925 81.7283C14.5925 80.7183 15.244 79.8346 16.2863 79.5821C17.8498 79.2034 19.2831 79.4559 19.5437 79.4559L19.8042 79.5821L19.9345 79.7083C20.1951 80.2133 20.4557 80.7183 20.4557 81.2233C20.7163 82.612 20.586 84.1269 20.0648 85.8943L19.9345 86.1468L19.6739 86.2731C19.4134 86.3993 19.0225 86.5256 18.6316 86.5256C18.5013 86.6518 18.371 86.6518 18.2407 86.6518ZM17.9801 80.4658C17.5893 80.4658 17.0681 80.4658 16.5469 80.5921C16.0257 80.7183 15.7652 81.2233 15.7652 81.7283C15.7652 82.2332 15.7652 82.8645 15.8955 83.4957C16.156 84.7581 17.3287 85.6418 18.5013 85.5156C18.6316 85.5156 18.8922 85.5156 19.0225 85.3894C19.4134 83.8744 19.5437 82.4857 19.2831 81.4758C19.1528 81.097 19.1528 80.8445 18.8922 80.4658C18.7619 80.4658 18.371 80.4658 17.9801 80.4658Z" fill="#3D1F04"/>
<path d="M28.1432 148.259L24.2344 146.618C24.3647 146.492 31.5308 129.828 31.2702 122.632C31.1399 119.728 29.837 116.193 27.622 112.28C25.0162 107.861 23.8436 102.811 24.2344 97.8877L28.5341 98.2664C28.1432 102.433 29.1856 106.599 31.2702 110.26C34.0064 114.804 35.4396 118.971 35.5699 122.505C35.7002 130.711 28.4038 147.628 28.1432 148.259Z" fill="#3D1F04"/>
<path d="M29.4463 122.127C29.4463 122.379 29.4463 122.632 29.4463 122.884C29.4463 123.768 29.5766 124.652 29.7069 125.535C29.8372 126.545 30.3583 127.681 31.2704 128.439C32.7036 129.828 34.5277 129.954 35.3095 129.954C35.57 129.954 35.7003 129.828 35.8306 129.701C36.3518 128.691 37.785 125.157 37.1336 122.253C36.7427 120.612 35.8306 119.476 34.658 118.971C32.5733 118.087 29.8372 119.476 29.5766 121.622L29.4463 122.127Z" fill="#EA9F4F"/>
<path d="M35.179 130.459C34.3973 130.459 32.3126 130.206 30.7491 128.691C29.9673 127.934 29.3158 126.671 29.0553 125.535C28.7947 124.525 28.7947 123.642 28.7947 122.884C28.7947 122.632 28.7947 122.379 28.7947 122.127V121.748C28.925 120.485 29.7067 119.475 31.0097 118.844C32.1823 118.213 33.6155 118.087 34.6579 118.592C36.0911 119.223 37.1334 120.612 37.394 122.253C38.0455 125.283 36.482 128.944 35.9608 129.954C35.9608 130.206 35.5699 130.459 35.179 130.459ZM29.9673 122.127C29.9673 122.379 29.9673 122.632 29.9673 122.884C29.9673 123.642 30.0976 124.399 30.2279 125.409C30.3582 126.419 30.8794 127.429 31.5308 128.06C32.8338 129.323 34.5276 129.449 35.179 129.449C35.5699 128.565 37.0031 125.156 36.482 122.379C36.2214 120.99 35.4396 119.98 34.3973 119.475C33.6155 119.097 32.5732 119.223 31.6611 119.602C30.7491 120.107 30.2279 120.864 30.0976 121.748L29.9673 122.127Z" fill="#3D1F04"/>
<path d="M36.6125 127.05C37.0034 125.662 37.3942 123.768 37.0034 122.253C36.8731 121.748 36.7428 121.243 36.4822 120.738C36.4822 120.738 34.9187 120.359 33.3552 120.864C32.5734 121.117 32.0522 121.874 32.0522 122.632C32.0522 123.137 32.0522 123.894 32.1825 124.652C32.4431 126.293 34.0066 127.555 35.7004 127.303C35.961 127.303 36.3519 127.176 36.6125 127.05Z" fill="#F6ECD0"/>
<path d="M35.3094 127.808C33.4853 127.808 31.7915 126.419 31.5309 124.652C31.4006 123.894 31.4006 123.263 31.4006 122.505C31.4006 121.369 32.1824 120.486 33.2247 120.233C35.0488 119.728 36.6123 120.107 36.6123 120.107L36.8729 120.233L37.0032 120.359C37.2638 120.864 37.5244 121.369 37.6547 122C37.9153 123.389 37.785 125.157 37.2638 127.05L37.1335 127.303L36.8729 127.429C36.4821 127.555 36.2215 127.681 35.7003 127.681C35.57 127.808 35.4397 127.808 35.3094 127.808ZM35.0488 121.117C34.5277 121.117 34.0065 121.117 33.4853 121.369C32.9641 121.495 32.5733 122 32.5733 122.632C32.5733 123.263 32.5733 123.894 32.7036 124.525C32.9641 125.914 34.2671 126.924 35.7003 126.798C35.9609 126.798 36.0912 126.798 36.2215 126.672C36.6123 125.03 36.7426 123.515 36.4821 122.379C36.3518 122 36.2215 121.622 36.0912 121.243C35.8306 121.243 35.57 121.117 35.0488 121.117Z" fill="#3D1F04"/>
<path d="M95.496 47.208L76.5889 81.9314L78.0869 82.6972L96.994 47.9738L95.496 47.208Z" fill="#F6ECD0"/>
<path d="M94.7018 46.3553L75.7947 81.0786L77.2927 81.8444L96.1998 47.121L94.7018 46.3553Z" fill="#3D1F04"/>
<path d="M47.4268 38.174H46.645V39.8151H47.4268V38.174Z" fill="#3D1F04"/>
<path d="M32.834 43.3499C32.834 43.3499 34.2673 44.2337 32.834 49.6622C32.834 49.6622 31.7917 53.9545 36.3519 55.8482C36.3519 55.8482 38.176 56.2269 39.6093 55.2169C40.2607 54.712 40.391 53.9545 40.0001 53.197C39.479 52.3133 38.9578 50.7984 38.9578 48.1472C39.0881 43.4762 36.8731 42.2137 36.8731 42.2137L32.834 43.3499Z" fill="#EA9F4F"/>
<path d="M37.2639 56.3531C36.7427 56.3531 36.3518 56.2269 36.3518 56.2269H36.2215C31.1401 54.0807 32.3128 49.4097 32.3128 49.4097C33.6157 44.7386 32.5733 43.7287 32.5733 43.7287L31.531 43.0975L32.7036 42.845L37.0033 41.5825L37.2639 41.7088C37.3942 41.7088 39.7394 43.2237 39.6091 48.1472C39.6091 50.6721 40.1303 52.1871 40.5212 52.9445C41.0424 53.8282 40.7818 54.9644 40 55.5957C39.088 56.2269 38.0456 56.3531 37.2639 56.3531ZM36.6124 55.2169C36.873 55.2169 38.3062 55.4694 39.3486 54.712C39.7394 54.4595 39.8697 53.8282 39.6091 53.4495C39.088 52.5658 38.4365 50.9246 38.5668 48.1472C38.6971 44.6124 37.3942 43.2237 36.873 42.845L33.746 43.7287C34.1369 44.6124 34.3974 46.3798 33.3551 49.7884C33.3551 49.7884 32.4431 53.4495 36.6124 55.2169Z" fill="#3D1F04"/>
<path d="M33.7459 54.5857C33.0944 52.4396 34.5276 48.6522 34.6579 48.526L35.7003 48.9047C35.7003 48.9047 34.3973 52.4396 34.9185 54.207L33.7459 54.5857Z" fill="#3D1F04"/>
<path d="M35.3094 39.3102C35.8305 42.2138 34.6579 44.8649 32.7035 45.1174C30.7491 45.3699 28.925 43.2237 28.4038 40.3201C27.8827 37.4165 29.0553 34.7653 31.0097 34.5129C32.9641 34.2604 34.7882 36.4065 35.3094 39.3102Z" fill="#EA9F4F"/>
<path d="M32.3127 45.7486C31.4006 45.7486 30.3583 45.2436 29.5765 44.3599C28.6645 43.35 28.1433 41.9613 27.8827 40.4463C27.6221 38.9314 27.7524 37.4165 28.2736 36.2803C28.7948 35.0178 29.7068 34.2604 30.8795 34.0079C33.0944 33.6291 35.3094 36.0278 35.8306 39.3101C36.3518 42.5925 35.0488 45.3699 32.8339 45.7486C32.5733 45.7486 32.443 45.7486 32.3127 45.7486ZM31.2703 35.1441C31.1401 35.1441 31.1401 35.1441 31.0098 35.1441C30.228 35.2703 29.7068 35.7753 29.316 36.7852C28.9251 37.7952 28.7948 39.0576 28.9251 40.4463C29.1857 41.7088 29.7068 42.9712 30.3583 43.7287C31.0098 44.4862 31.7915 44.8649 32.5733 44.7387C34.1368 44.4862 35.0488 42.0875 34.658 39.5626C34.2671 37.0377 32.8339 35.1441 31.2703 35.1441Z" fill="#3D1F04"/>
<path d="M35.1792 41.8351C35.5701 43.855 34.658 45.7487 33.3551 45.875C32.0522 46.1274 30.7493 44.6125 30.3584 42.4664C29.9675 40.4464 30.8796 38.5528 32.1825 38.4265C33.4854 38.3003 34.7883 39.689 35.1792 41.8351Z" fill="#3D1F04"/>
<path d="M33.0946 46.3799C31.5311 46.3799 30.0978 44.7387 29.8372 42.5925C29.707 41.4563 29.8372 40.4464 30.0978 39.5626C30.4887 38.6789 31.2705 38.0477 32.0522 37.9215C33.746 37.669 35.3095 39.3102 35.7004 41.7088C36.0913 44.1075 35.049 46.1274 33.4854 46.3799C33.3552 46.3799 33.2249 46.3799 33.0946 46.3799ZM32.4431 38.9314H32.3128C31.6613 39.0577 31.4008 39.5626 31.2705 39.9414C31.0099 40.5726 30.8796 41.4563 31.0099 42.34C31.2705 44.1075 32.3128 45.3699 33.3552 45.2437C34.3975 45.1174 34.9187 43.4762 34.6581 41.835C34.2672 40.1939 33.3551 38.9314 32.4431 38.9314Z" fill="#3D1F04"/>
<path d="M31.922 37.1639C31.922 37.6689 31.7917 38.0477 31.7917 38.5526C31.7917 40.1938 32.0523 41.7087 32.3129 43.3499C32.7038 45.2436 33.6158 47.2635 35.0491 48.6522C37.6549 51.1771 41.0425 51.5558 42.4758 51.5558C42.8666 51.5558 43.1272 51.3033 43.2575 51.0508C44.1696 49.2834 46.9057 42.8449 45.7331 37.4164C45.0816 34.5128 43.3878 32.3666 41.1728 31.3567C37.3943 29.5893 32.3129 32.3666 31.7917 36.4065L31.922 37.1639Z" fill="#F6ECD0"/>
<path d="M42.606 52.1871C41.1728 52.1871 37.5246 51.8083 34.7884 49.1572C33.3552 47.7685 32.3128 45.6224 31.7917 43.6024C31.4008 41.7088 31.2705 40.1938 31.2705 38.6789C31.2705 38.3002 31.2705 37.7952 31.4008 37.2902L31.5311 36.5327C31.7917 34.5128 33.2249 32.6192 35.3096 31.483C37.3943 30.3468 39.7395 30.2205 41.6939 31.1042C44.1695 32.2404 45.8633 34.6391 46.5148 37.5427C47.6874 43.0975 44.821 49.6622 44.0392 51.5558C43.6483 51.8083 43.1271 52.1871 42.606 52.1871ZM38.8275 31.3567C37.7851 31.3567 36.7428 31.6092 35.7005 32.1142C33.8764 32.9979 32.7037 34.6391 32.4431 36.4065L32.3128 37.164C32.3128 37.6689 32.1826 38.1739 32.1826 38.5527C32.1826 39.9413 32.3129 41.4563 32.7037 43.2237C33.0946 45.1174 34.0067 47.011 35.3096 48.2735C37.7851 50.6721 41.0425 50.9246 42.3454 51.0509C42.4757 51.0509 42.606 50.9246 42.606 50.7984C43.3877 49.031 46.1239 42.7187 45.0815 37.5427C44.5604 34.8916 42.9969 32.8717 40.9122 31.8617C40.391 31.6092 39.6092 31.3567 38.8275 31.3567Z" fill="#3D1F04"/>
<path d="M45.2117 46.3799C45.9935 43.7288 46.5146 40.4464 45.9935 37.4165C45.7329 36.4066 45.4723 35.5229 44.9511 34.6391C44.8208 34.6391 42.0847 34.0079 39.2182 34.7654C37.6547 35.1441 36.7427 36.5328 36.7427 38.0478C36.7427 39.0577 36.873 40.3202 37.0033 41.8351C37.5244 44.865 40.3909 47.1374 43.5179 46.7586C44.0391 46.7586 44.5602 46.6324 45.2117 46.3799Z" fill="#3D1F04"/>
<path d="M42.8664 47.3899C39.7394 47.3899 36.8729 45.1175 36.3517 41.9614C36.0912 40.699 35.9609 39.3103 36.0912 38.1741C36.0912 36.4066 37.2638 34.8917 38.9576 34.3867C42.0846 33.6293 45.0814 34.2605 45.0814 34.2605L45.3419 34.3867L45.4722 34.513C45.9934 35.3967 46.3843 36.4066 46.5146 37.4166C47.0357 39.9415 46.7752 43.0976 45.7328 46.6325L45.6025 46.7587L45.3419 46.8849C44.8208 47.1374 44.1693 47.2637 43.3875 47.3899C43.2573 47.3899 42.9967 47.3899 42.8664 47.3899ZM42.3452 35.018C41.4332 35.018 40.3908 35.1442 39.2182 35.3967C38.0455 35.7754 37.1335 36.7854 37.1335 38.1741C37.1335 39.3103 37.2638 40.5727 37.3941 41.8352C37.9153 44.6125 40.5211 46.6325 43.2573 46.38C43.7784 46.38 44.1693 46.2537 44.5602 46.1275C45.4722 42.8451 45.7328 40.0677 45.2116 37.6691C45.0814 36.7854 44.6905 36.0279 44.2996 35.2704C44.1693 35.1442 43.3875 35.018 42.3452 35.018Z" fill="#3D1F04"/>
<path d="M29.0552 36.0278C28.4037 35.6491 27.2311 34.2604 28.2735 32.6192C28.9249 31.483 29.837 31.3568 30.4884 31.2305C31.0096 31.1043 31.4005 31.1043 31.9216 30.5993C32.7034 29.8418 33.876 29.4631 34.9184 29.9681C35.8304 30.3468 36.3516 30.978 36.3516 31.7355L35.179 31.6093C35.179 31.3568 34.9184 30.978 34.3972 30.8518C33.876 30.5993 33.0943 30.5993 32.5731 31.2305C31.9216 31.988 31.1399 32.1142 30.4884 32.2405C29.837 32.3667 29.4461 32.3667 29.0552 33.1242C28.2735 34.3867 29.1855 35.0179 29.4461 35.1441L29.0552 36.0278Z" fill="#3D1F04"/>
<path d="M28.404 38.8052C27.6223 38.679 26.3193 38.0477 26.3193 36.1541C26.3193 33.8817 28.404 32.8717 28.404 32.8717L28.9252 33.8817L28.6646 33.2504L28.9252 33.7554C28.9252 33.7554 27.3617 34.5129 27.3617 36.1541C27.3617 37.5428 28.5343 37.7952 28.5343 37.7952L28.404 38.8052Z" fill="#3D1F04"/>
<path d="M27.2308 34.2604C26.449 33.5029 26.1885 32.2405 26.449 31.2305C26.7096 30.4731 27.2308 29.8419 28.0126 29.5894C29.7064 29.0844 30.7487 30.5993 31.1396 31.3568L30.0972 31.7355C30.0972 31.7355 29.4458 30.2206 28.2731 30.5993C27.8823 30.7256 27.6217 30.9781 27.4914 31.483C27.3611 32.1143 27.4914 32.998 28.0126 33.5029L27.2308 34.2604Z" fill="#3D1F04"/>
<path d="M40.912 51.6821L40 51.0509C40.5212 50.2934 40.7818 48.9047 40.912 48.526L41.9544 48.6522C41.9544 48.6522 41.8241 50.5459 40.912 51.6821Z" fill="#3D1F04"/>
<path d="M39.3484 42.0875C38.0454 42.0875 36.8728 40.9513 36.8728 39.5626C36.8728 38.1739 37.9151 37.0377 39.3484 37.0377C40.6513 37.0377 41.8239 38.1739 41.8239 39.5626C41.8239 40.9513 40.6513 42.0875 39.3484 42.0875ZM39.3484 37.9214C38.4363 37.9214 37.7849 38.6789 37.7849 39.5626C37.7849 40.4463 38.4363 41.2038 39.3484 41.2038C40.2604 41.2038 40.9119 40.4463 40.9119 39.5626C40.9119 38.6789 40.2604 37.9214 39.3484 37.9214Z" fill="#EA9F4F"/>
<path d="M44.5602 41.7087C43.3876 41.7087 42.3452 40.5725 42.3452 39.1838C42.3452 37.7951 43.3876 36.6589 44.5602 36.6589C45.7328 36.6589 46.7752 37.7951 46.7752 39.1838C46.7752 40.5725 45.7328 41.7087 44.5602 41.7087ZM44.5602 37.4164C43.7784 37.4164 43.127 38.1739 43.127 39.0576C43.127 39.9413 43.7784 40.6988 44.5602 40.6988C45.342 40.6988 45.9934 39.9413 45.9934 39.0576C45.9934 38.1739 45.342 37.4164 44.5602 37.4164Z" fill="#EA9F4F"/>
<path d="M42.4756 39.9414C42.3453 39.8151 42.0847 39.6889 41.9545 39.6889C41.6939 39.6889 41.5636 39.8151 41.5636 39.8151L40.9121 39.3102C40.9121 39.3102 41.303 38.9314 41.8242 38.8052C42.0847 38.8052 42.4756 38.8052 42.8665 39.1839L42.4756 39.9414Z" fill="#EA9F4F"/>
<path d="M37.3397 39.3734L36.4355 39.4891L36.5548 40.3653L37.459 40.2495L37.3397 39.3734Z" fill="#EA9F4F"/>
<path d="M36.2214 40.6988H33.4852L33.3549 39.9413C33.3549 39.6888 33.0944 39.0576 31.9217 39.1839L31.6611 37.5427C33.3549 37.2902 34.267 38.1739 34.6579 39.0576H36.0911V40.6988H36.2214Z" fill="#3D1F04"/>
<path d="M42.215 44.9912C41.6939 44.9912 41.1727 44.7387 40.9121 44.6125L41.4333 43.9813C41.5636 44.1075 42.3453 44.6125 43.3877 43.7288L43.9088 44.36C43.3877 44.865 42.7362 44.9912 42.215 44.9912Z" fill="#EA9F4F"/>
<path d="M40.391 39.6888C40.391 39.9413 40.1304 40.1938 39.8698 40.1938C39.6092 40.1938 39.3486 39.9413 39.3486 39.6888C39.3486 39.4363 39.6092 39.1838 39.8698 39.1838C40.1304 39.0576 40.391 39.3101 40.391 39.6888Z" fill="#EA9F4F"/>
<path d="M45.6026 39.3102C45.6026 39.5626 45.3421 39.8151 45.0815 39.8151C44.8209 39.8151 44.5603 39.5626 44.5603 39.3102C44.5603 39.0577 44.8209 38.8052 45.0815 38.8052C45.3421 38.8052 45.6026 39.0577 45.6026 39.3102Z" fill="#EA9F4F"/>
</svg>
