<svg xmlns="http://www.w3.org/2000/svg" xmlns:xlink="http://www.w3.org/1999/xlink" width="498" height="311" viewBox="0 0 498 311">
<defs>
<linearGradient id="b" x1="-17.789%" x2="78.923%" y1="122.542%" y2="1.644%">
<stop offset="0%" stop-color="#583BC0"/>
<stop offset="82.652%" stop-color="#FBABA1"/>
<stop offset="100%" stop-color="#FFCAB5"/>
</linearGradient>
<path id="a" d="M78.087 148.236C42.8 169.585-27.637 202.876 12.036 256.328s82.59-8.007 128.343 57.844c45.753 65.852 107.841.676 170.337 15.923 62.496 15.247 81.036 40.049 148.094 23.828 67.058-16.22 106.23-78.6 71.408-140.029s-105.54-75.758-75.163-128.004c30.376-52.246-43.467-114.029-104.487-70.503-61.02 43.525-99.488 36.514-141.229 18.257C167.6 15.387 127.481 3.81 97.804 48.662c-29.678 44.852-55.687 39.503-55.687 63.66 0 24.157 71.256 14.566 35.97 35.914z"/>
<linearGradient id="e" x1="50%" x2="50%" y1="0%" y2="100%">
<stop offset="0%" stop-color="#FFBE95"/>
<stop offset="100%" stop-color="#FF8A5C"/>
</linearGradient>
<path id="d" d="M12.508 71.303c1.669 10.87 5.636 16.307 11.903 16.307 9.4 0-.899 14.408 14.231 14.408 15.13 0 4.735 14.63 19.447 14.63s5.015 14.618 16.49 14.618c7.65 0 13.213 3.126 16.686 9.378H12.508V71.303z"/>
<path id="g" d="M12.508 71.303c1.669 10.87 5.636 16.307 11.903 16.307 9.4 0-.899 14.408 14.231 14.408 15.13 0 4.735 14.63 19.447 14.63s5.015 14.618 16.49 14.618c7.65 0 13.213 3.126 16.686 9.378H12.508V71.303z"/>
<linearGradient id="i" x1="139.022%" x2="-39.022%" y1="10.978%" y2="10.978%">
<stop offset="0%" stop-color="#916DE1"/>
<stop offset="100%" stop-color="#583BC0"/>
</linearGradient>
<path id="k" d="M.036.165h116.035v76.224H.036z"/>
<filter id="j" width="117.2%" height="126.2%" x="-4.3%" y="-6.6%" filterUnits="objectBoundingBox">
<feOffset dx="10" dy="10" in="SourceAlpha" result="shadowOffsetOuter1"/>
<feColorMatrix in="shadowOffsetOuter1" values="0 0 0 0 0.28627451 0 0 0 0 0.352941176 0 0 0 0 0.549019608 0 0 0 0.447095788 0"/>
</filter>
<linearGradient id="l" x1="193.028%" x2="0%" y1="50%" y2="50%">
<stop offset="0%" stop-color="#FFC199"/>
<stop offset="100%" stop-color="#FF8D60"/>
</linearGradient>
<path id="n" d="M110.435 18.613h116.774v116.648H110.435z"/>
<filter id="m" width="117.1%" height="117.1%" x="-4.3%" y="-4.3%" filterUnits="objectBoundingBox">
<feOffset dx="10" dy="10" in="SourceAlpha" result="shadowOffsetOuter1"/>
<feColorMatrix in="shadowOffsetOuter1" values="0 0 0 0 0.28627451 0 0 0 0 0.352941176 0 0 0 0 0.549019608 0 0 0 0.447095788 0"/>
</filter>
<linearGradient id="o" x1="50%" x2="50%" y1="-78.044%" y2="100%">
<stop offset="0%" stop-color="#916DE1"/>
<stop offset="100%" stop-color="#583BC0"/>
</linearGradient>
<path id="q" d="M146.25 161.872h205.958v51.656H146.25z"/>
<filter id="p" width="109.7%" height="138.7%" x="-2.4%" y="-9.7%" filterUnits="objectBoundingBox">
<feOffset dx="10" dy="10" in="SourceAlpha" result="shadowOffsetOuter1"/>
<feColorMatrix in="shadowOffsetOuter1" values="0 0 0 0 0.28627451 0 0 0 0 0.352941176 0 0 0 0 0.549019608 0 0 0 0.447095788 0"/>
</filter>
<linearGradient id="r" x1="96.514%" x2="96.514%" y1="-46.514%" y2="146.514%">
<stop offset="0%" stop-color="#FFC199"/>
<stop offset="100%" stop-color="#FF8D60"/>
</linearGradient>
<linearGradient id="s" x1="57.621%" x2="24.181%" y1="-31.201%" y2="219.249%">
<stop offset="0%" stop-color="#FF8D60"/>
<stop offset="100%" stop-color="#EF6B37"/>
</linearGradient>
<linearGradient id="t" x1="32.481%" y1="82.553%" y2="-23.431%">
<stop offset="0%" stop-color="#33374F"/>
<stop offset="100%" stop-color="#585F83"/>
</linearGradient>
</defs>
<g fill="none" fill-rule="evenodd">
<g transform="translate(-.179)">
<mask id="c" fill="#fff">
<use xlink:href="#a"/>
</mask>
<use fill="url(#b)" xlink:href="#a"/>
<path stroke="#FFF" stroke-width="2" d="M74.377 148.478c-.463.28-23.248 13.614-30.388 18.12-20.874 13.174-34.79 25.153-42.492 38.374-9.584 16.45-8.411 33.718 5.601 52.611 8.816 11.886 18.144 18.716 28.885 21.989 8.19 2.495 14.829 2.863 30.175 2.473 17.385-.443 25.327.124 35.368 3.677 13.313 4.71 25.233 14.402 36.729 30.962 13.31 19.172 28.487 28.298 47.041 29.981 7.886.716 16.383.116 26.327-1.666 7.45-1.335 12.508-2.549 27.839-6.485 16.764-4.306 25.497-6.234 35.647-7.504 13.323-1.667 25.238-1.317 36.641 1.46 10.942 2.666 21.11 5.731 32.154 9.558 2.564.888 30.9 11.311 38.664 13.717 25.806 7.997 47.83 8.823 80.053 1.009 33.552-8.136 60.724-27.818 74.923-53.802 14.704-26.908 14.346-58.196-2.502-87.948-8.233-14.54-18.692-27.171-32.829-40.786-2.981-2.872-6.098-5.765-9.805-9.125-2.191-1.987-9.83-8.834-9.499-8.537-7.849-7.06-12.544-11.524-16.79-16.133-17.354-18.837-20.625-35.234-7.82-57.255 14.368-24.708 6.034-53.576-18.058-71.45-24.93-18.496-58.792-19.578-87.246.735-29.848 21.308-55.58 31.702-80.094 33.25-20.769 1.31-40.016-3.378-65.237-14.403-26.395-11.54-44.388-16.795-61.186-16.404-20.626.479-37.514 10.199-51.58 31.455-8.577 12.963-17.312 22.653-27.037 30.831-5.05 4.247-18.947 14.213-20.337 15.35-6.699 5.479-9.403 10.351-9.407 18.389-.004 7.804 7.334 12.336 22.64 16.348 2.255.59 9.702 2.399 10.241 2.535 8.226 2.072 12.042 3.63 13.423 6.2 1.809 3.365-1.41 7.245-10.044 12.474z" mask="url(#c)" opacity=".15" transform="rotate(15 271.711 179.859)"/>
<path stroke="#FFF" stroke-width="2" d="M103.953 153.31c-.396.24-19.775 11.584-25.847 15.417-17.736 11.197-29.557 21.376-36.094 32.598-8.122 13.944-7.13 28.57 4.753 44.596 7.479 10.087 15.386 15.877 24.49 18.652 6.945 2.116 12.582 2.428 25.619 2.095 14.804-.377 21.573.105 30.136 3.136 11.354 4.018 21.517 12.282 31.311 26.395 11.295 16.275 24.164 24.014 39.9 25.441 11.98 1.086 21.321-.588 46.021-6.934 14.266-3.665 21.698-5.307 30.34-6.39 11.348-1.42 21.5-1.122 31.219 1.245 9.313 2.268 17.966 4.877 27.366 8.134 2.18.755 26.275 9.62 32.875 11.665 21.924 6.795 40.63 7.495 68.011.852 28.499-6.914 51.577-23.635 63.634-45.703 12.483-22.848 12.18-49.413-2.122-74.68-6.995-12.356-15.882-23.091-27.896-34.665a371.13 371.13 0 0 0-8.335-7.758c-1.863-1.69-8.36-7.516-8.077-7.261-6.678-6.01-10.674-9.808-14.289-13.733-14.803-16.071-17.6-30.091-6.67-48.89 12.181-20.95 5.118-45.429-15.315-60.591-21.153-15.697-49.883-16.613-74.032.631-25.41 18.145-47.324 27-68.205 28.32C255.054 67 238.662 63.007 217.19 53.62c-22.43-9.808-37.718-14.273-51.978-13.94-17.494.407-31.814 8.651-43.752 26.696-7.304 11.042-14.744 19.297-23.027 26.264-4.302 3.619-16.123 12.098-17.3 13.062-5.666 4.635-7.944 8.74-7.948 15.53-.004 6.54 6.19 10.367 19.145 13.762 1.916.503 8.25 2.04 8.707 2.156 7.049 1.775 10.308 3.107 11.513 5.348 1.595 2.968-1.187 6.323-8.597 10.811z" mask="url(#c)" opacity=".15" transform="rotate(17 271.715 179.862)"/>
</g>
<g transform="translate(418.621 172.069)">
<g fill="#FFD3C4" fill-rule="nonzero">
<path d="M21.472 110.035c28.567-49.556 40.706-81.267 36.446-94.93-3.102-9.95-9.244-13.915-15.589-10.56-6.994 3.7-13.045 15.342-16.044 32.789-4.308 25.066-8.411 48.092-12.308 69.079l7.495 3.622zm-8.549-3.43c3.917-21.082 8.042-44.23 12.376-69.44C28.345 19.443 34.532 7.538 41.86 3.662c6.989-3.697 13.745.665 17.013 11.145 4.392 14.09-7.873 46.065-36.768 96.13l-.232.403-9.02-4.359.07-.375z"/>
<path d="M20.79 96.73a.515.515 0 0 1-.008-.028l-1.897-7.884a.508.508 0 0 1 .987-.237l1.586 6.588a427.662 427.662 0 0 0 9.08-23.177.507.507 0 0 1-.057-.139l-2.718-10.71a.508.508 0 0 1 .985-.249l2.39 9.418a422.116 422.116 0 0 0 4.437-13.234.506.506 0 0 1 .1-.315 420.06 420.06 0 0 0 5.432-18.678L36.4 25.957a.507.507 0 1 1 .947-.367l4.2 10.823a420.31 420.31 0 0 0 4.257-17.863.508.508 0 0 1 .993.214 420.986 420.986 0 0 1-9.551 36.382l11.438-11.72a.508.508 0 0 1 .727.708L36.573 57.289a424.852 424.852 0 0 1-9.935 27.934l8.201-6.322a.508.508 0 0 1 .62.804l-9.275 7.15a.506.506 0 0 1-.235.1 434.52 434.52 0 0 1-9.505 21.96.508.508 0 0 1-.921-.428A435.988 435.988 0 0 0 20.79 96.73z"/>
</g>
<mask id="f" fill="#fff">
<use xlink:href="#d"/>
</mask>
<use fill="url(#e)" fill-rule="nonzero" xlink:href="#d"/>
<path fill="#EC7F4F" fill-rule="nonzero" d="M23.327 135.326l31.226-20.12-3.172-10.333-27.675 24.155z" mask="url(#f)"/>
<g fill-rule="nonzero">
<path fill="#FFC9B7" d="M3.564 139.387c11.53-18.083 24.028-38 37.491-59.755 20.195-32.63 40.364-30.217 38.58-8.457-1.114 13.609-21.69 36.452-61.726 68.53-1.762 1.412-6.544 1.306-14.345-.318z"/>
<path fill="#F2A890" d="M14.138 132.879l1.194-8.02a.508.508 0 0 1 1.005.15l-.998 6.702a427.662 427.662 0 0 0 17.102-18.087.507.507 0 0 1-.002-.15l1.493-10.949a.508.508 0 0 1 1.006.138l-1.312 9.627c3.085-3.49 6.109-7.026 9.071-10.608a.506.506 0 0 1 .21-.255 420.06 420.06 0 0 0 12.034-15.283l.18-13.008a.507.507 0 1 1 1.015.014l-.16 11.61a420.31 420.31 0 0 0 10.638-14.968.508.508 0 0 1 .841.57 420.986 420.986 0 0 1-22.485 30.155l14.996-6.583a.508.508 0 0 1 .41.93l-16.832 7.388a424.852 424.852 0 0 1-19.676 22.178l9.972-2.79a.508.508 0 0 1 .275.978l-11.28 3.155a.506.506 0 0 1-.255.005c-4.005 4.173-8.16 9.144-12.352 13.176-1.568 1.507-2.425.104-.964-1.298a434.546 434.546 0 0 0 4.87-4.748l.004-.03z"/>
</g>
</g>
<g transform="matrix(-1 0 0 1 90.32 172.069)">
<g fill="#DDACD3" fill-rule="nonzero">
<path d="M21.472 110.035c28.567-49.556 40.706-81.267 36.446-94.93-3.102-9.95-9.244-13.915-15.589-10.56-6.994 3.7-13.045 15.342-16.044 32.789-4.308 25.066-8.411 48.092-12.308 69.079l7.495 3.622zm-8.549-3.43c3.917-21.082 8.042-44.23 12.376-69.44C28.345 19.443 34.532 7.538 41.86 3.662c6.989-3.697 13.745.665 17.013 11.145 4.392 14.09-7.873 46.065-36.768 96.13l-.232.403-9.02-4.359.07-.375z"/>
<path d="M20.79 96.73a.515.515 0 0 1-.008-.028l-1.897-7.884a.508.508 0 0 1 .987-.237l1.586 6.588a427.662 427.662 0 0 0 9.08-23.177.507.507 0 0 1-.057-.139l-2.718-10.71a.508.508 0 0 1 .985-.249l2.39 9.418a422.116 422.116 0 0 0 4.437-13.234.506.506 0 0 1 .1-.315 420.06 420.06 0 0 0 5.432-18.678L36.4 25.957a.507.507 0 1 1 .947-.367l4.2 10.823a420.31 420.31 0 0 0 4.257-17.863.508.508 0 0 1 .993.214 420.986 420.986 0 0 1-9.551 36.382l11.438-11.72a.508.508 0 0 1 .727.708L36.573 57.289a424.852 424.852 0 0 1-9.935 27.934l8.201-6.322a.508.508 0 0 1 .62.804l-9.275 7.15a.506.506 0 0 1-.235.1 434.52 434.52 0 0 1-9.505 21.96.508.508 0 0 1-.921-.428A435.988 435.988 0 0 0 20.79 96.73z"/>
</g>
<mask id="h" fill="#fff">
<use xlink:href="#g"/>
</mask>
<use fill="url(#e)" fill-rule="nonzero" xlink:href="#g"/>
<path fill="#F28251" fill-rule="nonzero" d="M32.564 127.643l22.82-11.375-6.053-7.005-17.194-7.57z" mask="url(#h)"/>
<g fill-rule="nonzero">
<path fill="#F7ABB0" d="M3.564 139.387c11.53-18.083 24.028-38 37.491-59.755 20.195-32.63 40.364-30.217 38.58-8.457-1.114 13.609-21.69 36.452-61.726 68.53-1.762 1.412-6.544 1.306-14.345-.318z"/>
<path fill="#FFD6D9" d="M14.138 132.879l1.194-8.02a.508.508 0 0 1 1.005.15l-.998 6.702a427.662 427.662 0 0 0 17.102-18.087.507.507 0 0 1-.002-.15l1.493-10.949a.508.508 0 0 1 1.006.138l-1.312 9.627c3.085-3.49 6.109-7.026 9.071-10.608a.506.506 0 0 1 .21-.255 420.06 420.06 0 0 0 12.034-15.283l.18-13.008a.507.507 0 1 1 1.015.014l-.16 11.61a420.31 420.31 0 0 0 10.638-14.968.508.508 0 0 1 .841.57 420.986 420.986 0 0 1-22.485 30.155l14.996-6.583a.508.508 0 0 1 .41.93l-16.832 7.388a424.852 424.852 0 0 1-19.676 22.178l9.972-2.79a.508.508 0 0 1 .275.978l-11.28 3.155a.506.506 0 0 1-.255.005c-4.005 4.173-8.16 9.144-12.352 13.176-1.568 1.507-2.425.104-.964-1.298a434.546 434.546 0 0 0 4.87-4.748l.004-.03z"/>
</g>
</g>
<g transform="translate(16.252 61.086)">
<g transform="translate(.325)">
<path fill="url(#e)" fill-rule="nonzero" d="M97.115 182.34v69.342H18.358c3.474-6.252 9.036-9.378 16.686-9.378 11.476 0 1.779-14.618 16.49-14.618 14.713 0 4.317-14.63 19.447-14.63 15.13 0 4.831-14.409 14.231-14.409 6.267 0 10.235-5.435 11.903-16.307z"/>
<rect width="363.037" height="251.979" x="62.724" fill="#CADCF0" fill-rule="nonzero" rx="10"/>
<rect width="363.037" height="251.979" x="54.05" fill="#E9F5FF" fill-rule="nonzero" rx="10"/>
<path fill="#7856CF" d="M72.724 0h343.037c5.523 0 10 4.477 10 10v15.198H62.724V10c0-5.523 4.477-10 10-10z"/>
<path fill="url(#i)" d="M64.05 0h343.036c5.523 0 10 4.477 10 10v15.198H54.05V10c0-5.523 4.477-10 10-10z"/>
<ellipse cx="69.185" cy="12.599" fill="#FFF" fill-rule="nonzero" rx="5.045" ry="5.04"/>
<ellipse cx="87.604" cy="12.599" fill="#FF8D60" fill-rule="nonzero" rx="5.045" ry="5.04"/>
</g>
<path fill="#DBEEFF" fill-rule="nonzero" d="M115.861 34.798h284.208v15.749H115.861zM64.77 61.105h116.035V240.01H64.77zM187.437 61.105h116.035v76.224H187.437zM187.437 201.583h116.036v38.427H187.437zM187.437 143.198H400.07v51.656H187.437zM310.725 61.105h89.344v76.224h-89.344z"/>
<path fill="#9EADCC" fill-rule="nonzero" d="M426.086 57.965v28.65l-139.65 37.38-7.171-26.732 146.821-39.298z" opacity=".87" style="mix-blend-mode:multiply"/>
<path fill="#DBEEFF" fill-rule="nonzero" d="M310.725 201.583h89.344v38.427h-89.344z"/>
<ellipse cx="97.002" cy="42.521" fill="#DBEEFF" fill-rule="nonzero" rx="7.883" ry="7.874"/>
<ellipse cx="72.348" cy="42.521" fill="#DBEEFF" fill-rule="nonzero" rx="7.883" ry="7.874"/>
</g>
<g fill-rule="nonzero" transform="translate(264.48 72.751)">
<use fill="#000" filter="url(#j)" xlink:href="#k"/>
<use fill="#FFFFFE" xlink:href="#k"/>
</g>
<path fill="#4D4370" fill-rule="nonzero" d="M294.352 149.473v-1.333h86.199v1.333z"/>
<path fill="url(#l)" fill-rule="nonzero" d="M0 0h94.754v15.997H0z" transform="translate(275.156 80.033)"/>
<path fill="url(#i)" d="M26.024 20.751H68.73v3.999H26.024z" transform="translate(275.156 80.033)"/>
<path fill="#DBEEFF" fill-rule="nonzero" d="M283.163 108.31h78.739v4h-78.739zM309.855 115.839h52.048v3.999h-52.048z"/>
<path fill="url(#i)" d="M8.007 35.806H29.36v3.999H8.007z" transform="translate(275.156 80.033)"/>
<path fill="#DBEEFF" fill-rule="nonzero" d="M283.163 123.17h45.375v4h-45.375z"/>
<path fill="url(#i)" d="M58.053 43.138h28.693v4H58.053z" transform="translate(275.156 80.033)"/>
<path fill="#DBEEFF" fill-rule="nonzero" d="M283.163 130.503h78.739v3.999h-78.739zM283.163 137.835h45.375v3.999h-45.375z"/>
<g fill-rule="nonzero" transform="translate(16.252 60.753)">
<use fill="#000" filter="url(#m)" xlink:href="#n"/>
<use fill="#FFFFFE" xlink:href="#n"/>
</g>
<g fill="#4D4370" fill-rule="nonzero">
<path d="M143.368 196.129v-1.333h6.673v1.333zM157.381 196.129v-1.333h86.199v1.333z"/>
</g>
<path fill="#CADCF0" fill-rule="nonzero" d="M66.298 177.531h51.796v31.995H66.298z"/>
<path fill="#2A2B44" fill-rule="nonzero" d="M68.325 180.599l1.642 28.927h2.568z"/>
<path fill="#FFFFFE" fill-rule="nonzero" d="M68.325 180.605l51.292-7.2 4.457 31.683-51.292 7.2z"/>
<path fill="#DBEEFF" fill-rule="nonzero" d="M77.481 184.626l34.443-4.835.73 5.19-34.442 4.836zM78.613 195.836l34.443-4.835.73 5.19-34.443 4.836z"/>
<path fill="url(#o)" d="M121.445 27.996h42.039v46.659h-42.039z" transform="translate(16.252 60.753)"/>
<g transform="translate(146.371 99.747)">
<rect width="23.515" height="24.1" x=".587" y=".281" fill="#FFFFFE" fill-rule="nonzero" rx="2"/>
<path fill="url(#o)" d="M21.724 17.015l-3.392-4.246a1.334 1.334 0 0 0-2.086 0l-2.365 2.96-3.901-4.883a1.334 1.334 0 0 0-2.086 0l-4.928 6.17V3.154h18.758v13.86zm-7.377-6.238a2 2 0 1 0-2.002-2 2 2 0 0 0 2.002 2z"/>
</g>
<path fill="url(#l)" fill-rule="nonzero" d="M168.822 27.996h42.039v7.999h-42.039z" transform="translate(16.252 60.753)"/>
<path fill="#DBEEFF" fill-rule="nonzero" d="M185.074 101.746h22.02v8h-22.02zM185.074 114.744h48.71v8h-48.71zM185.074 127.41h35.366v7.998h-35.366z"/>
<g fill-rule="nonzero" transform="translate(16.252 60.753)">
<use fill="#000" filter="url(#p)" xlink:href="#q"/>
<use fill="#FFFFFE" xlink:href="#q"/>
</g>
<path fill="#DBEEFF" fill-rule="nonzero" d="M273.822 232.06h62.057v5.331h-62.057z"/>
<path fill="url(#i)" d="M257.57 182.368h55.384v5.332H257.57z" transform="translate(16.252 60.753)"/>
<path fill="#DBEEFF" fill-rule="nonzero" d="M273.822 254.587h82.075v5.332h-82.075z"/>
<path fill="url(#o)" d="M157.478 171.306h12.011v33.995h-12.011zM190.175 178.638h12.011V205.3h-12.011zM206.523 183.304h12.011V205.3h-12.011zM222.538 176.638h12.011V205.3h-12.011z" transform="translate(16.252 60.753)"/>
<path fill="url(#r)" fill-rule="nonzero" d="M173.826 187.7h12.011v17.6h-12.011z" transform="translate(16.252 60.753)"/>
<path fill="#DBEEFF" fill-rule="nonzero" d="M155.847 151.407v-2h75.262v2zM144.836 161.736a6.668 6.668 0 0 1-6.672-6.665 6.668 6.668 0 0 1 6.672-6.664 6.668 6.668 0 0 1 6.672 6.664 6.668 6.668 0 0 1-6.672 6.665zm0-2c2.579 0 4.67-2.088 4.67-4.665a4.667 4.667 0 0 0-4.67-4.664 4.667 4.667 0 0 0-4.67 4.664 4.667 4.667 0 0 0 4.67 4.665zM155.847 160.71v-2h75.262v2z"/>
<path fill="url(#i)" d="M149.604 108.622v-2h65.253v2z" transform="translate(16.252 60.753)"/>
<path fill="#DBEEFF" fill-rule="nonzero" d="M139.165 178.04v-2h91.944v2zM139.165 186.706v-2h58.58v2z"/>
<g>
<path fill="#F9CCA6" d="M163.276 145.405l3.334-5.684-.422-4.313h2.391c2.1-1.208 3.149-2.848 3.149-4.92 0-3.108 6.263-.123 6.263 2.306 0 1.62-1.975 4.225-5.925 7.818l-4.554 8.317-4.236-3.524z"/>
<path fill="#583BC0" d="M99.17 211.19c-2.067 9.855-2.756 17.583-2.067 23.183.69 5.6 1.379 15.874 2.068 30.823l-2.498 51.23c1.7.338 3.29.507 4.771.507 1.48 0 3.155-.169 5.024-.507l11.416-51.23V229.57l-1.693-18.381H99.17z"/>
<path fill="#2A2B44" fill-rule="nonzero" d="M117.884 243.528v21.668l-.279 1.768-5.277-28.097 5.556 4.661z"/>
<path fill="#583BC0" d="M132.238 211.634a148.347 148.347 0 0 0 8.493 26.468c5.458 12.738 7.2 22.553 6.802 29.328-.265 4.517-2.313 20.779-6.142 48.786-1.752.644-3.429.966-5.03.966-1.6 0-3.264-.322-4.993-.966l-.076-48.786c-15.8-21.704-23.699-36.43-23.699-44.176V205.96l24.645 5.673z"/>
<path fill="#F9CCA6" d="M127.927 134.714l2.071 3.166a1 1 0 0 1-.525 1.498l-.618.202c.105.993.144 2.146.117 3.46a3 3 0 0 1-2.637 2.917c-2.013.246-3.548.185-4.605-.183l-2.08 3.155-10.605-.786v-6.604c-.968-7.253-1.452-11.368-1.452-12.348 0-1.469 1.528-7.67 7.888-7.67 6.36 0 10.707 2.219 12.23 9.256l-.566 1.998c.427 1.22.508.897.782 1.94z"/>
<path fill="#FF8D60" fill-rule="nonzero" d="M108.96 147.904c-4.93 5.006-9.521 8.813-13.774 11.422-4.253 2.608-5.829 8.658-4.728 18.148h11.27c.174 11.645-.282 19.28-1.366 22.905-1.085 3.625-1.67 7.957-1.755 12.997 11.204 3.883 22.54 3.643 34.006-.717-.683-13.817-.007-24.133 2.026-30.949 2.033-6.815 2.033-11.974 0-15.478 12.511 2.558 20.269 3.045 23.273 1.46 3.005-1.586 6.95-8.69 11.833-21.315l-6.77-1.88-8.368 12.459c-11.054-2.997-18.385-4.926-21.994-5.788-3.61-.862-7.566-1.293-11.871-1.293l-.773-1.971h-11.008z"/>
<path fill="url(#s)" fill-rule="nonzero" d="M45.282 57.453c-.203.88-.446 1.793-.728 2.736-2.033 6.816-2.708 17.132-2.026 30.949-11.466 4.36-22.801 4.6-34.005.717l.007-.385c6.678-.865 4.413-4.382 10.637-2.725 7.069 1.881 2.306-5.356 10.303-6.42 7.998-1.066-.077-10.177 7.068-13.814 4.764-2.425 7.664-6.153 8.702-11.183l.042.125z" transform="translate(90.085 121.521)"/>
<path fill="#2A2B44" fill-rule="nonzero" d="M90.32 175.802l6.162 1.73H90.32z"/>
<path fill="url(#s)" fill-rule="nonzero" d="M11.671 62.632c.018-2.057.008-4.283-.027-6.679h-9.15c2.897-4.022 4.97-10.216 6.216-18.584l4.203 3.214 4.07 15.427-5.312 6.622z" transform="translate(90.085 121.521)"/>
<path fill="#2A2B44" fill-rule="nonzero" d="M127.48 130.027c-.559 2.162-2.144 3.489-4.755 3.981-3.916.74-6.842 6.185 3.499 15.867 10.34 9.681-5.922 17.454 0 28.353 5.922 10.9 4.253 21.917-11.882 23.065-16.136 1.149-24.127-9.961-18.434-23.065 5.694-13.104-2.42-18.376 3.228-25.404 5.649-7.027 3.441-15.596 5.664-22.797 2.222-7.2 6.892-10.613 18.8-7.56 7.938 2.034 9.455 6.203 4.55 12.506-.882-.714-1.215-1.466-1-2.255.216-.789.326-1.686.33-2.69z"/>
</g>
<path fill-rule="nonzero" stroke="#2A2B44" d="M107.791 217.532c-.303 9.457 2.46 18.613 8.289 27.467"/>
<path fill="#2A2B44" fill-rule="nonzero" d="M134.65 166.252c.735 1.273 1.202 2.763 1.402 4.47l-4.526-5.707 3.125 1.237z"/>
<g fill="#4D4370" fill-rule="nonzero">
<path d="M397.354 119.87l1.596-2.417a.668.668 0 0 1 1.114.734l-2.314 3.505a.668.668 0 0 1-.95.173l-3.91-2.836a.666.666 0 1 1 .784-1.079l1.901 1.38c-9.894-18.76-24.747-24.124-44.79-16.192a.668.668 0 0 1-.492-1.24c21.092-8.346 36.861-2.321 47.061 17.972z"/>
</g>
<g>
<path fill="#33374F" d="M449.36 225.914c1.107 5.533 1.66 11.619 1.66 18.257 0 9.959-5.815 33.715-5.815 34.545 0 .553 7.2 12.621 21.6 36.204-1.116 1.39-2.224 2.496-3.323 3.32-1.1.823-2.207 1.377-3.323 1.66-19.938-20.264-30.184-30.949-30.738-32.055-.831-1.66-7.477-32.885-7.477-43.674 0-7.192.83-16.32 2.492-27.385l24.923 9.128z"/>
<path fill="url(#t)" fill-rule="nonzero" d="M132.076 113.565c4.984-5.533 11.63-6.916 19.938-4.15 1.661 4.426 1.661 11.618 0 21.577-2.492 14.937-35.723 36.204-35.723 37.864 0 1.106-.83 15.11-2.492 42.013a22.042 22.042 0 0 1-4.154.83 20.79 20.79 0 0 1-4.154 0c-3.323-31.882-4.984-49.206-4.984-51.972 0-4.15 24.092-37.864 31.569-46.162z" transform="translate(288.207 109.86)"/>
<g transform="matrix(-1 0 0 1 463.996 110.079)">
<path fill="#FABD91" d="M40.948 61.779L57.5 60.644l21.309-9.321v-5.03c1.178 1.553 4.517-1.994 5.23-1.33.713.665 3.243 2.842 4.81 3.848l-6.351 4.466c-9.847 8.253-17 12.966-19.512 14.13-2.513 1.163-8.653 2.937-18.421 5.32L40.948 61.78z"/>
<path fill="#FFF" fill-rule="nonzero" d="M174.572 45.605L7.258.82.088 27.553l167.314 44.783z"/>
<path fill="#CADCF0" fill-rule="nonzero" d="M21.669 33.373v1.05L.048 27.563 7.342.372 8.31.63 1.262 26.9z"/>
<path fill="#E9F5FF" fill-rule="nonzero" d="M140.181 41.94L11.499 7.44 7.043 24.055l128.681 34.5z"/>
<path fill="url(#i)" d="M132.756 26.592L42.458 50.8l-1.244-4.637 90.298-24.21z" transform="matrix(-1 0 0 1 173.97 0)"/>
<ellipse cx="156.032" cy="54.78" fill="#E9F5FF" fill-rule="nonzero" rx="9.008" ry="8.999"/>
<ellipse cx="156.032" cy="54.78" fill="url(#i)" rx="5.259" ry="5.253"/>
<path fill="#2A2B44" d="M44.717 60.034c1.97 1.952 3.335 3.514 4.098 4.688.763 1.173 1.743 3.22 2.94 6.139l-15.074 6.98c-8.218 1.366-12.65-.424-13.296-5.369-.647-4.944 6.464-9.09 21.332-12.438z"/>
<path fill="#F9CCA6" d="M45.478 64.437l27.36-3.422 24.222-4.576c.23-1.082 1.273-1.203 2.046-2.17 1.158-1.451 2.93-4.302 3.742-4.13.813.173-.812 4.625 0 4.798.542.115 6.897 2.035 9.703 2.73-4.237 2.96-12.481 3.445-12.94 3.348-.812-.173-23.279 7.529-25.077 7.996-1.199.31-9.638 3.576-25.318 9.794-1.855-3.197-3.02-5.706-3.494-7.529-.474-1.822-.555-4.102-.244-6.839z"/>
<path fill="#FF8D60" fill-rule="nonzero" d="M50.06 62.865c1.749 1.84 3.086 3.537 4.012 5.094.925 1.556 2.09 4.066 3.494 7.529-8.54 5.54-15.962 8.489-22.267 8.847-9.457.537-14.992-13.364-6.47-17.494 5.682-2.753 12.76-4.078 21.23-3.976z"/>
</g>
<path fill="#F9CCA6" d="M439.606 151.372c-4.23-2.113-9.269.885-11.824 5.159-.162.271-2.572-.282-2.714 0-.123.243 2.02 1.32 1.915 1.57-1.622 3.82-1.191 8.227 3.277 10.906v10.373h12.462l-2.077-10.373c4.846-8.99 4.5-14.869-1.039-17.635z"/>
<path fill="#33374F" d="M439.606 172.119c-4.846 0-7.269-2.42-7.269-7.262 2.077-.691 2.77-1.729 2.077-3.112-.692-1.383-1.73-1.729-3.115-1.037-1.385-2.766-2.077-4.84-2.077-6.224 0-2.075 5.192-8.299 13.5-4.15 8.307 4.15 4.154 21.785-3.116 21.785z"/>
<path fill="#FF8D60" fill-rule="nonzero" d="M435.236 173.633h4.985c3.323 0 7.477 3.32 10.8 13.278 1.676 5.023 1.051 15.705.83 24.896-.216 9.028-.007 23.103-.83 23.925-1.662 1.66-7.739 4.368-19.407 3.5-11.668-.87-16.357-6.178-17.837-6.918.99-2.194 2.233-4.868 3.73-8.02a37.294 37.294 0 0 0 3.606-15.998v-10.597c0-14.938 5.815-24.066 14.123-24.066z"/>
</g>
<path fill="#2A2B44" fill-rule="nonzero" d="M421.336 192.977l3.64.83-3.795 1.45z"/>
<path fill="url(#s)" fill-rule="nonzero" d="M453.43 143.72c-.066 2.533-.154 5.095-.213 7.552-.217 9.028-.007 23.103-.83 23.926-1.662 1.66-7.739 4.367-19.407 3.498-11.668-.868-16.357-6.177-17.837-6.916l.141-.314c11.97.692 10.413-3.383 17.4-.23 7.492 3.383 4.25-6.998 10.07-6.998s.811-9.337 6.406-14.157c1.963-1.692 3.387-3.812 4.27-6.361z" transform="translate(-1.366 60.535)"/>
</g>
</svg>
