<svg xmlns="http://www.w3.org/2000/svg" xmlns:xlink="http://www.w3.org/1999/xlink" width="480" height="481" viewBox="0 0 480 481">
<defs>
<radialGradient id="a" cx="51.149%" fx="51.149%" fy="50%" gradientTransform="matrix(0 1 -.8935 0 .958 -.011)">
<stop offset="0%" stop-color="#C8F1E3"/>
<stop offset="45.996%" stop-color="#E0F8F1"/>
<stop offset="100%" stop-color="#DDFFE0" stop-opacity="0"/>
</radialGradient>
<linearGradient id="b" x1="-1.589%" x2="35.554%" y1="48.979%" y2="50%">
<stop offset="0%" stop-color="#009110" stop-opacity="0"/>
<stop offset="100%" stop-color="#FCB737"/>
</linearGradient>
<filter id="c" width="112%" height="143.7%" x="-6%" y="-21.9%" filterUnits="objectBoundingBox">
<feGaussianBlur in="SourceGraphic" stdDeviation="6.565"/>
</filter>
<path id="e" d="M0 123.018c24.886 1.395 57.057-5.627 96.512-21.064a114.498 114.498 0 0 0 12.357-5.688c41.84-22.41 92.36-21.273 133.147 2.999 13.584 8.083 27.554 11.402 41.908 9.956 41.57-4.188 75.535-28.41 101.895-72.67"/>
<filter id="d" width="110%" height="144.3%" x="-4.9%" y="-17%" filterUnits="objectBoundingBox">
<feMorphology in="SourceAlpha" operator="dilate" radius="2.707" result="shadowSpreadOuter1"/>
<feOffset dy="5" in="shadowSpreadOuter1" result="shadowOffsetOuter1"/>
<feMorphology in="SourceAlpha" radius="2.707" result="shadowInner"/>
<feOffset dy="5" in="shadowInner" result="shadowInner"/>
<feComposite in="shadowOffsetOuter1" in2="shadowInner" operator="out" result="shadowOffsetOuter1"/>
<feGaussianBlur in="shadowOffsetOuter1" result="shadowBlurOuter1" stdDeviation="4.5"/>
<feColorMatrix in="shadowBlurOuter1" values="0 0 0 0 0.215686275 0 0 0 0 0.568627451 0 0 0 0 0.988235294 0 0 0 0.1 0"/>
</filter>
<linearGradient id="f" x1="-1.589%" x2="35.554%" y1="49.313%" y2="50%">
<stop offset="0%" stop-color="#009110" stop-opacity="0"/>
<stop offset="100%" stop-color="#6457DC"/>
</linearGradient>
<filter id="g" width="112%" height="153.3%" x="-6%" y="-26.6%" filterUnits="objectBoundingBox">
<feGaussianBlur in="SourceGraphic" stdDeviation="6.565"/>
</filter>
<path id="i" d="M0 105.053a59.6 59.6 0 0 0 56.955-25.097l2.203-3.176C72.55 57.47 97.664 50.217 119.29 59.415l4.758 2.024c24.931 10.603 53.86 3.8 71.452-16.805l3.115-3.65c15.933-18.662 43.306-22.46 63.718-8.841l7.2 4.804c15.923 10.623 37.405 6.664 48.495-8.938A66.586 66.586 0 0 1 372.3 0h13.518"/>
<filter id="h" width="109.8%" height="135.4%" x="-4.9%" y="-13%" filterUnits="objectBoundingBox">
<feMorphology in="SourceAlpha" operator="dilate" radius="2.707" result="shadowSpreadOuter1"/>
<feOffset dy="5" in="shadowSpreadOuter1" result="shadowOffsetOuter1"/>
<feMorphology in="SourceAlpha" radius="2.707" result="shadowInner"/>
<feOffset dy="5" in="shadowInner" result="shadowInner"/>
<feComposite in="shadowOffsetOuter1" in2="shadowInner" operator="out" result="shadowOffsetOuter1"/>
<feGaussianBlur in="shadowOffsetOuter1" result="shadowBlurOuter1" stdDeviation="4.5"/>
<feColorMatrix in="shadowBlurOuter1" values="0 0 0 0 0.215686275 0 0 0 0 0.568627451 0 0 0 0 0.988235294 0 0 0 0.1 0"/>
</filter>
<path id="k" d="M2.707 0H256.31a2.707 2.707 0 0 1 2.707 2.707v72.2a2.707 2.707 0 0 1-2.707 2.708H2.707A2.708 2.708 0 0 1 0 74.907v-72.2A2.707 2.707 0 0 1 2.707 0z"/>
<filter id="j" width="173%" height="343.5%" x="-36.5%" y="-87%" filterUnits="objectBoundingBox">
<feOffset dy="27" in="SourceAlpha" result="shadowOffsetOuter1"/>
<feGaussianBlur in="shadowOffsetOuter1" result="shadowBlurOuter1" stdDeviation="27"/>
<feColorMatrix in="shadowBlurOuter1" values="0 0 0 0 0.492174706 0 0 0 0 0.485770586 0 0 0 0 0.71569409 0 0 0 0.15 0"/>
</filter>
<linearGradient id="l" x1="50%" x2="50%" y1="12.662%" y2="100%">
<stop offset="0%" stop-color="#A298F7"/>
<stop offset="100%" stop-color="#6356DC"/>
</linearGradient>
<path id="n" d="M2.707 0H256.31a2.707 2.707 0 0 1 2.707 2.707v72.2a2.707 2.707 0 0 1-2.707 2.708H2.707A2.708 2.708 0 0 1 0 74.907v-72.2A2.707 2.707 0 0 1 2.707 0z"/>
<filter id="m" width="134.7%" height="216%" x="-17.4%" y="-46.4%" filterUnits="objectBoundingBox">
<feOffset dy="9" in="SourceAlpha" result="shadowOffsetOuter1"/>
<feGaussianBlur in="shadowOffsetOuter1" result="shadowBlurOuter1" stdDeviation="13.5"/>
<feColorMatrix in="shadowBlurOuter1" values="0 0 0 0 0.492174706 0 0 0 0 0.485770586 0 0 0 0 0.71569409 0 0 0 0.15 0"/>
</filter>
<linearGradient id="o" x1="50%" x2="50%" y1="12.662%" y2="100%">
<stop offset="0%" stop-color="#FFD992"/>
<stop offset="100%" stop-color="#FCB737"/>
</linearGradient>
</defs>
<g fill="none" fill-rule="evenodd">
<path fill="url(#a)" fill-rule="nonzero" d="M75.96 414.488v-67.993H5.857v-2.14h70.101V277.41H5.858v-2.14h70.101v-66.945H5.858v-2.14h70.101V139.24H5.858v-2.14h70.101V70.155H5.858v-2.14h70.101V0h2.14v68.015h75.96V0h2.14v68.015h74.889V0h2.14v68.015h74.89V0h2.139v68.015h75.96V0h2.139v68.015h75.96V0h2.139v68.015h70.102v2.14h-70.102V137.1h70.102v2.14h-70.102v66.945h70.102v2.14h-70.102v66.946h70.102v2.14h-70.102v66.945h70.102v2.14h-70.102v67.992h70.102v2.14h-70.102v68.014h-2.14v-68.015h-75.96v68.015h-2.139v-68.015h-75.96v68.015h-2.139v-68.015h-74.89v68.015h-2.14v-68.015h-74.889v68.015h-2.14v-68.015H78.1v68.015h-2.14v-68.015H5.858v-2.14h70.101zm2.14 0h75.959v-67.993h-75.96v67.993zm78.098 0h74.89v-67.993h-74.89v67.993zm77.03 0h74.89v-67.993h-74.89v67.993zm77.029 0h75.96v-67.993h-75.96v67.993zm78.099 0h75.96v-67.993h-75.96v67.993zm75.96-70.132V277.41h-75.96v66.946h75.96zm-78.1 0V277.41h-75.96v66.946h75.96zm-78.099 0V277.41h-74.89v66.946h74.89zm-77.03 0V277.41h-74.889v66.946h74.89zm-77.028 0V277.41h-75.96v66.946h75.96zm-75.96-69.085h75.96v-66.946h-75.96v66.946zm78.1 0h74.889v-66.946h-74.89v66.946zm77.029 0h74.89v-66.946h-74.89v66.946zm77.029 0h75.96v-66.946h-75.96v66.946zm78.099 0h75.96v-66.946h-75.96v66.946zm75.96-69.086V139.24h-75.96v66.945h75.96zm-78.1 0V139.24h-75.96v66.945h75.96zm-78.099 0V139.24h-74.89v66.945h74.89zm-77.03 0V139.24h-74.889v66.945h74.89zm-77.028 0V139.24h-75.96v66.945h75.96zM78.099 137.1h75.96V70.155h-75.96V137.1zm78.1 0h74.889V70.155h-74.89V137.1zm77.029 0h74.89V70.155h-74.89V137.1zm77.029 0h75.96V70.155h-75.96V137.1zm78.099 0h75.96V70.155h-75.96V137.1z" transform="translate(-37 -2)"/>
<g fill="#B7D0E9" font-family="Lato-Medium, Lato" font-size="10.83" font-weight="400" letter-spacing="-.12">
<text transform="translate(3.612 130.667)">
<tspan x="0" y="11">$40K</tspan>
</text>
<text transform="translate(3.612 130.667)">
<tspan x="0" y="78.687">$30K</tspan>
</text>
<text transform="translate(3.612 130.667)">
<tspan x="0" y="146.375">$20K</tspan>
</text>
<text transform="translate(3.612 130.667)">
<tspan x="0" y="214.062">$10K</tspan>
</text>
<text transform="translate(3.612 130.667)">
<tspan x="5.415" y="281.75">$0</tspan>
</text>
</g>
<g fill="#B7D0E9" font-family="Lato-Medium, Lato" font-size="10.83" font-weight="400" letter-spacing="-.12">
<text transform="translate(44.225 453.762)">
<tspan x="392" y="11">Jun</tspan>
</text>
<text transform="translate(44.225 453.762)">
<tspan x="311" y="11">Mey</tspan>
</text>
<text transform="translate(44.225 453.762)">
<tspan x="233" y="11">Apr</tspan>
</text>
<text transform="translate(44.225 453.762)">
<tspan x="154" y="11">Mar</tspan>
</text>
<text transform="translate(44.225 453.762)">
<tspan x="76" y="11">Feb</tspan>
</text>
<text transform="translate(44.225 453.762)">
<tspan x="0" y="11">Jan</tspan>
</text>
</g>
<g fill="#B7D0E9" font-family="Lato-Medium, Lato" font-size="10.83" font-weight="400" letter-spacing="-.12">
<text transform="translate(444.935 130.667)">
<tspan x="0" y="11">100%</tspan>
</text>
<text transform="translate(444.935 130.667)">
<tspan x="0" y="78.687">75%</tspan>
</text>
<text transform="translate(444.935 130.667)">
<tspan x="0" y="146.375">50%</tspan>
</text>
<text transform="translate(444.935 130.667)">
<tspan x="0" y="214.062">25%</tspan>
</text>
<text transform="translate(444.935 130.667)">
<tspan x="0" y="281.75">0%</tspan>
</text>
</g>
<g transform="translate(41.517 261.675)">
<path stroke="url(#b)" stroke-linecap="round" stroke-linejoin="round" stroke-width="6.769" d="M0 126.713a59.6 59.6 0 0 0 56.955-25.097l2.203-3.176C72.55 79.13 97.664 71.877 119.29 81.075l4.758 2.024c24.931 10.603 53.86 3.8 71.452-16.805l3.115-3.65c15.933-18.662 43.306-22.46 63.718-8.841l7.2 4.804c15.923 10.623 37.405 6.664 48.495-8.938A66.586 66.586 0 0 1 372.3 21.66h13.518" filter="url(#c)" opacity=".246"/>
<g stroke-linecap="round" stroke-linejoin="round">
<use fill="#000" filter="url(#d)" xlink:href="#e"/>
<use stroke="#6457DC" stroke-width="5.415" xlink:href="#e"/>
</g>
<circle cx="230.137" cy="94.762" r="11.281" fill="#6457DC" fill-rule="nonzero" stroke="#FFF" stroke-width="2.707"/>
<path stroke="url(#f)" stroke-linecap="round" stroke-linejoin="round" stroke-width="6.769" d="M0 146.032c24.886 1.394 57.057-5.627 96.512-21.064a114.497 114.497 0 0 0 12.357-5.688c41.84-22.41 92.36-21.273 133.147 2.998 13.584 8.084 27.554 11.403 41.908 9.957 41.57-4.188 75.535-28.411 101.895-72.67" filter="url(#g)" opacity=".246"/>
<g stroke-linecap="round" stroke-linejoin="round">
<use fill="#000" filter="url(#h)" xlink:href="#i"/>
<use stroke="#FCB737" stroke-width="5.415" xlink:href="#i"/>
</g>
</g>
<g>
<g transform="translate(59.567 175.865)">
<use fill="#000" filter="url(#j)" xlink:href="#k"/>
<use fill="#FFF" xlink:href="#k"/>
</g>
<text fill="#6B87A4" font-family="Lato-Medium, Lato" font-size="14.44" font-weight="400" letter-spacing="-.16" transform="translate(59.567 175.865)">
<tspan x="41.515" y="29.342">New Trial MMR</tspan>
</text>
<text fill="#303F4D" font-family="Lato-Bold, Lato" font-size="21.66" font-weight="bold" letter-spacing="-.241" transform="translate(59.567 175.865)">
<tspan x="41.515" y="58.905">$21.4K</tspan>
</text>
<text fill="#3BDC9C" font-family="Lato-Bold, Lato" font-size="13.537" font-weight="bold" letter-spacing="-.15" transform="translate(244.58 205.647)">
<tspan x="26.172" y="13">+19%</tspan>
</text>
<text fill="#6B87A4" font-family="Lato-Medium, Lato" font-size="10.83" font-weight="400" letter-spacing="-.12" transform="translate(244.58 205.647)">
<tspan x="0" y="31.757">Last 30 Days</tspan>
</text>
<g transform="translate(73.105 192.11)">
<circle cx="7.22" cy="7.22" r="7.22" fill="url(#l)"/>
<path stroke="#FFF" stroke-linecap="round" stroke-linejoin="round" stroke-width="1.805" d="M4.512 7.272l2.31 2.475 3.466-4.332"/>
</g>
</g>
<g>
<g transform="translate(194.04 75.687)">
<use fill="#000" filter="url(#m)" xlink:href="#n"/>
<use fill="#FFF" xlink:href="#n"/>
</g>
<text fill="#6B87A4" font-family="Lato-Medium, Lato" font-size="14.44" font-weight="400" letter-spacing="-.16" transform="translate(194.04 75.687)">
<tspan x="41.515" y="29.342">Trial Conversion Rate</tspan>
</text>
<text fill="#303F4D" font-family="Lato-Bold, Lato" font-size="21.66" font-weight="bold" letter-spacing="-.241" transform="translate(194.04 75.687)">
<tspan x="41.515" y="58.905">248</tspan>
</text>
<text fill="#3BDC9C" font-family="Lato-Bold, Lato" font-size="13.537" font-weight="bold" letter-spacing="-.15" transform="translate(379.052 105.47)">
<tspan x="26.172" y="13">+19%</tspan>
</text>
<text fill="#6B87A4" font-family="Lato-Medium, Lato" font-size="10.83" font-weight="400" letter-spacing="-.12" transform="translate(379.052 105.47)">
<tspan x="0" y="31.757">Last 30 Days</tspan>
</text>
<g transform="translate(207.577 91.932)">
<circle cx="7.22" cy="7.22" r="7.22" fill="url(#o)"/>
<path stroke="#FFF" stroke-linecap="round" stroke-linejoin="round" stroke-width="1.805" d="M4.512 7.272l2.31 2.475 3.466-4.332"/>
</g>
</g>
</g>
</svg>
